<?xml version="1.0" standalone="no"?>
<svg id="svgrect" xmlns="http://www.w3.org/2000/svg" xmlns:xlink="http://www.w3.org/1999/xlink" version=" 1.1" width="100%" height="100%" viewBox="0 0 902 652" text-rendering="geometricPrecision" cursor="crosshair" onclick="psyClick(event)" style="font-family: Helvetica, Arial;font-size: 80%;">
                                    <defs><marker id="markerCircle" markerWidth="14" markerHeight="14" refX="6" refY="6"><circle cx="6" cy="6" r="4" style="stroke: black; fill:none; stroke-width:0; opacity:0"/></marker><marker id="markerArrow" markerWidth="10" markerHeight="15" refX="14" refY="6" opacity="1" orient="auto"><path d="M2,3 L2,9 L10,6 Z" style="fill: #0000ff; stroke-width:1"/></marker></defs>
                                    <rect width="900" height="650" style="fill:#FFFFFF;stroke-width:0;stroke:#FFFFFF"/>
                                    <line name="psywbt" x1="67.1" y1="551.2" x2="153.0" y2="590.0" style="fill:none; stroke:#808080; stroke-width:1; stroke-dasharray:5,5"/><line name="psyt" x1="108.0" y1="590.0" x2="104.4" y2="540.784135921582" style="fill:none; stroke:#808080; stroke-width:1; stroke-dasharray:5,5"/><line name="psywbt" x1="104.4" y1="540.8" x2="213.1" y2="590.0" style="fill:none; stroke:#808080; stroke-width:1; stroke-dasharray:5,5"/><line name="psyt" x1="145.9" y1="590.0" x2="141.7" y2="527.80860925707" style="fill:none; stroke:#808080; stroke-width:1; stroke-dasharray:5,5"/><line name="psywbt" x1="141.7" y1="527.8" x2="278.5" y2="590.0" style="fill:none; stroke:#808080; stroke-width:1; stroke-dasharray:5,5"/><line name="psyt" x1="183.9" y1="590.0" x2="178.9" y2="513.009790213313" style="fill:none; stroke:#808080; stroke-width:1; stroke-dasharray:5,5"/><line name="psywbt" x1="178.9" y1="513.0" x2="328.9" y2="590.0" style="fill:none; stroke:#808080; stroke-width:1; stroke-dasharray:5,5"/><line name="psyt" x1="221.8" y1="590.0" x2="216.1" y2="496.122324561599" style="fill:none; stroke:#808080; stroke-width:1; stroke-dasharray:5,5"/><line name="psywbt" x1="216.1" y1="496.1" x2="398.2" y2="590.0" style="fill:none; stroke:#808080; stroke-width:1; stroke-dasharray:5,5"/><line name="psyt" x1="259.8" y1="590.0" x2="253.3" y2="475.998760127931" style="fill:none; stroke:#808080; stroke-width:1; stroke-dasharray:5,5"/><line name="psywbt" x1="253.3" y1="476.0" x2="473.4" y2="590.0" style="fill:none; stroke:#808080; stroke-width:1; stroke-dasharray:5,5"/><line name="psyt" x1="297.7" y1="590.0" x2="290.4" y2="452.102804951834" style="fill:none; stroke:#808080; stroke-width:1; stroke-dasharray:5,5"/><line name="psywbt" x1="290.4" y1="452.1" x2="555.4" y2="590.0" style="fill:none; stroke:#808080; stroke-width:1; stroke-dasharray:5,5"/><line name="psyt" x1="335.7" y1="590.0" x2="327.5" y2="423.820086325997" style="fill:none; stroke:#808080; stroke-width:1; stroke-dasharray:5,5"/><line name="psywbt" x1="327.5" y1="423.8" x2="645.4" y2="590.0" style="fill:none; stroke:#808080; stroke-width:1; stroke-dasharray:5,5"/><line name="psyt" x1="373.6" y1="590.0" x2="364.5" y2="390.446955740212" style="fill:none; stroke:#808080; stroke-width:1; stroke-dasharray:5,5"/><line name="psywbt" x1="364.5" y1="390.4" x2="744.6" y2="590.0" style="fill:none; stroke:#808080; stroke-width:1; stroke-dasharray:5,5"/><line name="psyt" x1="411.6" y1="590.0" x2="401.6" y2="351.177230036215" style="fill:none; stroke:#808080; stroke-width:1; stroke-dasharray:5,5"/><line name="psywbt" x1="401.6" y1="351.2" x2="829.0" y2="576.4" style="fill:none; stroke:#808080; stroke-width:1; stroke-dasharray:5,5"/><line name="psyt" x1="449.5" y1="590.0" x2="438.7" y2="305.086330641188" style="fill:none; stroke:#808080; stroke-width:1; stroke-dasharray:5,5"/><line name="psywbt" x1="438.7" y1="305.1" x2="829.0" y2="511.7" style="fill:none; stroke:#808080; stroke-width:1; stroke-dasharray:5,5"/><line name="psyt" x1="487.5" y1="590.0" x2="475.9" y2="251.112118613211" style="fill:none; stroke:#808080; stroke-width:1; stroke-dasharray:5,5"/><line name="psywbt" x1="475.9" y1="251.1" x2="829.0" y2="438.8" style="fill:none; stroke:#808080; stroke-width:1; stroke-dasharray:5,5"/><line name="psyt" x1="525.4" y1="590.0" x2="513.2" y2="188.03150400204" style="fill:none; stroke:#808080; stroke-width:1; stroke-dasharray:5,5"/><line name="psywbt" x1="513.2" y1="188.0" x2="829.0" y2="356.6" style="fill:none; stroke:#808080; stroke-width:1; stroke-dasharray:5,5"/><line name="psyt" x1="563.4" y1="590.0" x2="550.8" y2="114.431612250629" style="fill:none; stroke:#808080; stroke-width:1; stroke-dasharray:5,5"/><line name="psywbt" x1="550.8" y1="114.4" x2="829.0" y2="263.6" style="fill:none; stroke:#808080; stroke-width:1; stroke-dasharray:5,5"/><line name="psyt" x1="601.3" y1="590.0" x2="589.0" y2="50" style="fill:none; stroke:#808080; stroke-width:1; stroke-dasharray:5,5"/><line name="psyt" x1="639.3" y1="590.0" x2="629.0" y2="50" style="fill:none; stroke:#808080; stroke-width:1; stroke-dasharray:5,5"/><line name="psyt" x1="677.2" y1="590.0" x2="669.0" y2="50" style="fill:none; stroke:#808080; stroke-width:1; stroke-dasharray:5,5"/><line name="psyt" x1="715.2" y1="590.0" x2="709.0" y2="50" style="fill:none; stroke:#808080; stroke-width:1; stroke-dasharray:5,5"/><line name="psyt" x1="753.1" y1="590.0" x2="749.0" y2="50" style="fill:none; stroke:#808080; stroke-width:1; stroke-dasharray:5,5"/><line name="psyt" x1="791.0" y1="590.0" x2="789.0" y2="50" style="fill:none; stroke:#808080; stroke-width:1; stroke-dasharray:5,5"/>
                                    <line name="psysh" x1="68.6" y1="572.0" x2="829.0" y2="572.0" style="fill:none; stroke:#808080; stroke-width:1; stroke-dasharray:5,5"/><line name="psysh" x1="67.3" y1="554.0" x2="829.0" y2="554.0" style="fill:none; stroke:#808080; stroke-width:1; stroke-dasharray:5,5"/><line name="psysh" x1="119.1" y1="536.0" x2="829.0" y2="536.0" style="fill:none; stroke:#808080; stroke-width:1; stroke-dasharray:5,5"/><line name="psysh" x1="166.5" y1="518.0" x2="829.0" y2="518.0" style="fill:none; stroke:#808080; stroke-width:1; stroke-dasharray:5,5"/><line name="psysh" x1="208.1" y1="500.0" x2="829.0" y2="500.0" style="fill:none; stroke:#808080; stroke-width:1; stroke-dasharray:5,5"/><line name="psysh" x1="242.8" y1="482.0" x2="829.0" y2="482.0" style="fill:none; stroke:#808080; stroke-width:1; stroke-dasharray:5,5"/><line name="psysh" x1="272.7" y1="464.0" x2="829.0" y2="464.0" style="fill:none; stroke:#808080; stroke-width:1; stroke-dasharray:5,5"/><line name="psysh" x1="298.9" y1="446.0" x2="829.0" y2="446.0" style="fill:none; stroke:#808080; stroke-width:1; stroke-dasharray:5,5"/><line name="psysh" x1="322.3" y1="428.0" x2="829.0" y2="428.0" style="fill:none; stroke:#808080; stroke-width:1; stroke-dasharray:5,5"/><line name="psysh" x1="343.5" y1="410.0" x2="829.0" y2="410.0" style="fill:none; stroke:#808080; stroke-width:1; stroke-dasharray:5,5"/><line name="psysh" x1="362.9" y1="392.0" x2="829.0" y2="392.0" style="fill:none; stroke:#808080; stroke-width:1; stroke-dasharray:5,5"/><line name="psysh" x1="380.8" y1="374.0" x2="829.0" y2="374.0" style="fill:none; stroke:#808080; stroke-width:1; stroke-dasharray:5,5"/><line name="psysh" x1="397.3" y1="356.0" x2="829.0" y2="356.0" style="fill:none; stroke:#808080; stroke-width:1; stroke-dasharray:5,5"/><line name="psysh" x1="412.8" y1="338.0" x2="829.0" y2="338.0" style="fill:none; stroke:#808080; stroke-width:1; stroke-dasharray:5,5"/><line name="psysh" x1="427.3" y1="320.0" x2="829.0" y2="320.0" style="fill:none; stroke:#808080; stroke-width:1; stroke-dasharray:5,5"/><line name="psysh" x1="441.0" y1="302.0" x2="829.0" y2="302.0" style="fill:none; stroke:#808080; stroke-width:1; stroke-dasharray:5,5"/><line name="psysh" x1="453.9" y1="284.0" x2="829.0" y2="284.0" style="fill:none; stroke:#808080; stroke-width:1; stroke-dasharray:5,5"/><line name="psysh" x1="466.2" y1="266.0" x2="829.0" y2="266.0" style="fill:none; stroke:#808080; stroke-width:1; stroke-dasharray:5,5"/><line name="psysh" x1="477.9" y1="248.0" x2="829.0" y2="248.0" style="fill:none; stroke:#808080; stroke-width:1; stroke-dasharray:5,5"/><line name="psysh" x1="489.0" y1="230.0" x2="829.0" y2="230.0" style="fill:none; stroke:#808080; stroke-width:1; stroke-dasharray:5,5"/><line name="psysh" x1="499.7" y1="212.0" x2="829.0" y2="212.0" style="fill:none; stroke:#808080; stroke-width:1; stroke-dasharray:5,5"/><line name="psysh" x1="509.9" y1="194.0" x2="829.0" y2="194.0" style="fill:none; stroke:#808080; stroke-width:1; stroke-dasharray:5,5"/><line name="psysh" x1="519.7" y1="176.0" x2="829.0" y2="176.0" style="fill:none; stroke:#808080; stroke-width:1; stroke-dasharray:5,5"/><line name="psysh" x1="529.2" y1="158.0" x2="829.0" y2="158.0" style="fill:none; stroke:#808080; stroke-width:1; stroke-dasharray:5,5"/><line name="psysh" x1="538.3" y1="140.0" x2="829.0" y2="140.0" style="fill:none; stroke:#808080; stroke-width:1; stroke-dasharray:5,5"/><line name="psysh" x1="547.1" y1="122.0" x2="829.0" y2="122.0" style="fill:none; stroke:#808080; stroke-width:1; stroke-dasharray:5,5"/><line name="psysh" x1="555.6" y1="104.0" x2="829.0" y2="104.0" style="fill:none; stroke:#808080; stroke-width:1; stroke-dasharray:5,5"/><line name="psysh" x1="563.9" y1="86.0" x2="829.0" y2="86.0" style="fill:none; stroke:#808080; stroke-width:1; stroke-dasharray:5,5"/><line name="psysh" x1="571.9" y1="68.0" x2="829.0" y2="68.0" style="fill:none; stroke:#808080; stroke-width:1; stroke-dasharray:5,5"/>
                                    <line name="psyv" x1="102.1" y1="590.0" x2="84.7" y2="546.6" style="fill:none; stroke:#008080; stroke-width:1; stroke-dasharray:20,10"/><line name="psyv" x1="162.3" y1="590.0" x2="138.0" y2="529.2" style="fill:none; stroke:#008080; stroke-width:1; stroke-dasharray:20,10"/><line name="psyv" x1="222.6" y1="590.0" x2="189.9" y2="508.3" style="fill:none; stroke:#008080; stroke-width:1; stroke-dasharray:20,10"/><line name="psyv" x1="282.8" y1="590.0" x2="240.2" y2="483.5" style="fill:none; stroke:#008080; stroke-width:1; stroke-dasharray:20,10"/><line name="psyv" x1="343.0" y1="590.0" x2="288.5" y2="453.4" style="fill:none; stroke:#008080; stroke-width:1; stroke-dasharray:20,10"/><line name="psyv" x1="403.2" y1="590.0" x2="334.6" y2="417.8" style="fill:none; stroke:#008080; stroke-width:1; stroke-dasharray:20,10"/><line name="psyv" x1="463.4" y1="590.0" x2="378.5" y2="376.4" style="fill:none; stroke:#008080; stroke-width:1; stroke-dasharray:20,10"/><line name="psyv" x1="523.6" y1="590.0" x2="420.0" y2="329.2" style="fill:none; stroke:#008080; stroke-width:1; stroke-dasharray:20,10"/><line name="psyv" x1="583.8" y1="590.0" x2="459.3" y2="276.2" style="fill:none; stroke:#008080; stroke-width:1; stroke-dasharray:20,10"/><line name="psyv" x1="644.0" y1="590.0" x2="496.4" y2="217.6" style="fill:none; stroke:#008080; stroke-width:1; stroke-dasharray:20,10"/><line name="psyv" x1="704.2" y1="590.0" x2="531.5" y2="153.6" style="fill:none; stroke:#008080; stroke-width:1; stroke-dasharray:20,10"/><line name="psyv" x1="764.4" y1="590.0" x2="564.5" y2="84.6" style="fill:none; stroke:#008080; stroke-width:1; stroke-dasharray:20,10"/><line name="psyv" x1="824.7" y1="590.0" x2="611.3" y2="50.0" style="fill:none; stroke:#008080; stroke-width:1; stroke-dasharray:20,10"/><line name="psyv" x1="829.0" y1="442.9" x2="671.8" y2="50.0" style="fill:none; stroke:#008080; stroke-width:1; stroke-dasharray:20,10"/><line name="psyv" x1="829.0" y1="288.4" x2="732.3" y2="50.0" style="fill:none; stroke:#008080; stroke-width:1; stroke-dasharray:20,10"/><line name="psyv" x1="829.0" y1="137.9" x2="792.9" y2="50.0" style="fill:none; stroke:#008080; stroke-width:1; stroke-dasharray:20,10"/>
                                    <polyline name="psyrh" points="69.7,586.1 72.4,586.1 75.2,586.0 77.9,585.9 80.6,585.9 83.3,585.8 86.1,585.7 88.8,585.6 91.5,585.6 94.3,585.5 97.0,585.4 99.7,585.3 102.4,585.3 105.2,585.2 107.9,585.1 110.6,585.0 113.4,584.9 116.1,584.8 118.8,584.7 121.5,584.7 124.3,584.6 127.0,584.5 129.7,584.4 132.4,584.3 135.2,584.2 137.9,584.1 140.6,584.0 143.4,583.9 146.1,583.8 148.8,583.7 151.5,583.6 154.3,583.5 157.0,583.4 159.7,583.3 162.4,583.1 165.2,583.0 167.9,582.9 170.6,582.8 173.4,582.7 176.1,582.6 178.8,582.5 181.5,582.4 184.3,582.3 187.0,582.2 189.7,582.1 192.4,582.0 195.2,581.9 197.9,581.7 200.6,581.6 203.4,581.5 206.1,581.4 208.8,581.3 211.5,581.1 214.3,581.0 217.0,580.9 219.7,580.8 222.4,580.6 225.2,580.5 227.9,580.4 230.6,580.2 233.4,580.1 236.1,579.9 238.8,579.8 241.5,579.7 244.3,579.5 247.0,579.4 249.7,579.2 252.4,579.1 255.2,578.9 257.9,578.8 260.6,578.6 263.4,578.5 266.1,578.3 268.8,578.1 271.5,578.0 274.3,577.8 277.0,577.6 279.7,577.5 282.4,577.3 285.2,577.1 287.9,577.0 290.6,576.8 293.3,576.6 296.1,576.4 298.8,576.2 301.5,576.1 304.2,575.9 307.0,575.7 309.7,575.5 312.4,575.3 315.2,575.1 317.9,574.9 320.6,574.7 323.3,574.5 326.1,574.3 328.8,574.1 331.5,573.9 334.2,573.6 337.0,573.4 339.7,573.2 342.4,573.0 345.1,572.8 347.9,572.5 350.6,572.3 353.3,572.1 356.0,571.8 358.8,571.6 361.5,571.4 364.2,571.1 367.0,570.9 369.7,570.6 372.4,570.4 375.1,570.1 377.9,569.9 380.6,569.6 383.3,569.4 386.0,569.1 388.8,568.8 391.5,568.6 394.2,568.3 396.9,568.0 399.7,567.7 402.4,567.4 405.1,567.2 407.8,566.9 410.6,566.6 413.3,566.3 416.0,566.0 418.8,565.7 421.5,565.4 424.2,565.1 426.9,564.7 429.7,564.4 432.4,564.1 435.1,563.8 437.8,563.5 440.6,563.1 443.3,562.8 446.0,562.4 448.7,562.1 451.5,561.8 454.2,561.4 456.9,561.1 459.7,560.7 462.4,560.3 465.1,560.0 467.8,559.6 470.6,559.2 473.3,558.9 476.0,558.5 478.7,558.1 481.5,557.7 484.2,557.3 486.9,556.9 489.7,556.5 492.4,556.1 495.1,555.7 497.8,555.3 500.6,554.9 503.3,554.5 506.0,554.0 508.8,553.6 511.5,553.2 514.2,552.7 516.9,552.3 519.7,551.8 522.4,551.4 525.1,550.9 527.9,550.4 530.6,550.0 533.3,549.5 536.0,549.0 538.8,548.5 541.5,548.1 544.2,547.6 547.0,547.1 549.7,546.6 552.4,546.0 555.2,545.5 557.9,545.0 560.6,544.5 563.4,544.0 566.1,543.4 568.8,542.9 571.5,542.3 574.3,541.8 577.0,541.2 579.7,540.7 582.5,540.1 585.2,539.5 587.9,538.9 590.7,538.4 593.4,537.8 596.1,537.2 598.9,536.6 601.6,536.0 604.3,535.3 607.1,534.7 609.8,534.1 612.5,533.5 615.3,532.8 618.0,532.2 620.7,531.5 623.5,530.9 626.2,530.2 628.9,529.5 631.7,528.8 634.4,528.1 637.2,527.5 639.9,526.8 642.6,526.0 645.4,525.3 648.1,524.6 650.8,523.9 653.6,523.2 656.3,522.4 659.0,521.7 661.8,520.9 664.5,520.1 667.3,519.4 670.0,518.6 672.7,517.8 675.5,517.0 678.2,516.2 681.0,515.4 683.7,514.6 686.4,513.8 689.2,512.9 691.9,512.1 694.7,511.3 697.4,510.4 700.2,509.5 702.9,508.7 705.6,507.8 708.4,506.9 711.1,506.0 713.9,505.1 716.6,504.2 719.4,503.3 722.1,502.3 724.9,501.4 727.6,500.4 730.4,499.5 733.1,498.5 735.9,497.6 738.6,496.6 741.4,495.6 744.1,494.6 746.9,493.6 749.6,492.5 752.4,491.5 755.1,490.5 757.9,489.4 760.6,488.4 763.4,487.3 766.1,486.2 768.9,485.1 771.6,484.0 774.4,482.9 777.1,481.8 779.9,480.7 782.7,479.6 785.4,478.4 788.2,477.2 790.9,476.1 793.7,474.9 796.4,473.7 799.2,472.5 802.0,471.3 804.7,470.1 807.5,468.8 810.3,467.6 813.0,466.3 815.8,465.1 818.5,463.8 821.3,462.5 824.1,461.2 826.8,459.9 829.6,458.6" style="fill:none; stroke:#800000; stroke-width:1"/><polyline name="psyrh" points="69.4,582.3 72.1,582.1 74.9,582.0 77.6,581.9 80.3,581.7 83.0,581.6 85.8,581.4 88.5,581.3 91.2,581.1 93.9,581.0 96.7,580.8 99.4,580.7 102.1,580.5 104.8,580.3 107.5,580.2 110.3,580.0 113.0,579.8 115.7,579.7 118.4,579.5 121.2,579.3 123.9,579.1 126.6,578.9 129.3,578.8 132.1,578.6 134.8,578.4 137.5,578.2 140.2,578.0 142.9,577.8 145.7,577.6 148.4,577.4 151.1,577.2 153.8,576.9 156.5,576.7 159.3,576.5 162.0,576.3 164.7,576.1 167.4,575.9 170.2,575.7 172.9,575.5 175.6,575.3 178.3,575.0 181.1,574.8 183.8,574.6 186.5,574.4 189.2,574.2 191.9,573.9 194.7,573.7 197.4,573.5 200.1,573.2 202.8,573.0 205.5,572.8 208.3,572.5 211.0,572.3 213.7,572.0 216.4,571.8 219.2,571.5 221.9,571.2 224.6,571.0 227.3,570.7 230.0,570.4 232.8,570.2 235.5,569.9 238.2,569.6 240.9,569.3 243.7,569.0 246.4,568.7 249.1,568.4 251.8,568.1 254.5,567.8 257.3,567.5 260.0,567.2 262.7,566.9 265.4,566.6 268.1,566.3 270.9,565.9 273.6,565.6 276.3,565.3 279.0,564.9 281.7,564.6 284.5,564.2 287.2,563.9 289.9,563.5 292.6,563.2 295.3,562.8 298.1,562.4 300.8,562.1 303.5,561.7 306.2,561.3 308.9,560.9 311.7,560.5 314.4,560.1 317.1,559.7 319.8,559.3 322.5,558.9 325.3,558.5 328.0,558.1 330.7,557.7 333.4,557.2 336.2,556.8 338.9,556.4 341.6,555.9 344.3,555.5 347.0,555.0 349.8,554.6 352.5,554.1 355.2,553.6 357.9,553.2 360.6,552.7 363.4,552.2 366.1,551.7 368.8,551.2 371.5,550.7 374.2,550.2 377.0,549.7 379.7,549.2 382.4,548.6 385.1,548.1 387.8,547.6 390.6,547.0 393.3,546.5 396.0,545.9 398.7,545.4 401.4,544.8 404.2,544.2 406.9,543.6 409.6,543.0 412.3,542.4 415.0,541.8 417.8,541.2 420.5,540.6 423.2,540.0 425.9,539.4 428.6,538.7 431.4,538.1 434.1,537.4 436.8,536.8 439.5,536.1 442.2,535.4 445.0,534.8 447.7,534.1 450.4,533.4 453.1,532.7 455.9,532.0 458.6,531.3 461.3,530.5 464.0,529.8 466.7,529.1 469.5,528.3 472.2,527.6 474.9,526.8 477.6,526.0 480.4,525.2 483.1,524.4 485.8,523.6 488.5,522.8 491.2,522.0 494.0,521.2 496.7,520.4 499.4,519.5 502.1,518.7 504.9,517.8 507.6,516.9 510.3,516.1 513.0,515.2 515.8,514.3 518.5,513.4 521.2,512.5 523.9,511.5 526.7,510.6 529.4,509.7 532.1,508.7 534.8,507.7 537.6,506.8 540.3,505.8 543.0,504.8 545.8,503.8 548.5,502.8 551.2,501.7 553.9,500.7 556.7,499.7 559.4,498.6 562.1,497.5 564.9,496.5 567.6,495.4 570.3,494.3 573.0,493.2 575.8,492.0 578.5,490.9 581.2,489.7 584.0,488.6 586.7,487.4 589.4,486.2 592.2,485.0 594.9,483.8 597.6,482.6 600.4,481.4 603.1,480.1 605.8,478.9 608.6,477.6 611.3,476.3 614.0,475.0 616.8,473.7 619.5,472.4 622.3,471.1 625.0,469.7 627.7,468.4 630.5,467.0 633.2,465.6 635.9,464.2 638.7,462.8 641.4,461.4 644.2,459.9 646.9,458.5 649.7,457.0 652.4,455.5 655.1,454.0 657.9,452.5 660.6,451.0 663.4,449.4 666.1,447.9 668.9,446.3 671.6,444.7 674.4,443.1 677.1,441.5 679.9,439.8 682.6,438.2 685.4,436.5 688.1,434.8 690.9,433.1 693.6,431.4 696.4,429.7 699.1,427.9 701.9,426.1 704.6,424.4 707.4,422.6 710.1,420.7 712.9,418.9 715.7,417.0 718.4,415.2 721.2,413.3 723.9,411.4 726.7,409.5 729.5,407.5 732.2,405.5 735.0,403.6 737.8,401.6 740.5,399.5 743.3,397.5 746.1,395.5 748.8,393.4 751.6,391.3 754.4,389.2 757.1,387.0 759.9,384.9 762.7,382.7 765.5,380.5 768.2,378.3 771.0,376.1 773.8,373.8 776.6,371.5 779.4,369.2 782.1,366.9 784.9,364.6 787.7,362.2 790.5,359.8 793.3,357.4 796.1,355.0 798.9,352.5 801.6,350.0 804.4,347.5 807.2,345.0 810.0,342.5 812.8,339.9 815.6,337.3 818.4,334.7 821.2,332.1 824.0,329.4 826.8,326.7 829.6,324.0" style="fill:none; stroke:#800000; stroke-width:1"/><polyline name="psyrh" points="69.1,578.4 71.8,578.2 74.6,578.0 77.3,577.8 80.0,577.6 82.7,577.4 85.4,577.1 88.2,576.9 90.9,576.7 93.6,576.5 96.3,576.2 99.0,576.0 101.8,575.7 104.5,575.5 107.2,575.3 109.9,575.0 112.6,574.7 115.3,574.5 118.1,574.2 120.8,574.0 123.5,573.7 126.2,573.4 128.9,573.1 131.7,572.8 134.4,572.5 137.1,572.3 139.8,572.0 142.5,571.7 145.2,571.3 148.0,571.0 150.7,570.7 153.4,570.4 156.1,570.1 158.8,569.7 161.5,569.4 164.3,569.1 167.0,568.8 169.7,568.5 172.4,568.2 175.1,567.9 177.8,567.6 180.6,567.2 183.3,566.9 186.0,566.6 188.7,566.2 191.4,565.9 194.1,565.5 196.9,565.2 199.6,564.8 202.3,564.5 205.0,564.1 207.7,563.7 210.4,563.4 213.2,563.0 215.9,562.6 218.6,562.2 221.3,561.8 224.0,561.4 226.7,561.0 229.5,560.6 232.2,560.2 234.9,559.8 237.6,559.4 240.3,558.9 243.0,558.5 245.8,558.1 248.5,557.6 251.2,557.2 253.9,556.7 256.6,556.2 259.3,555.8 262.0,555.3 264.8,554.8 267.5,554.3 270.2,553.9 272.9,553.4 275.6,552.9 278.3,552.3 281.1,551.8 283.8,551.3 286.5,550.8 289.2,550.3 291.9,549.7 294.6,549.2 297.3,548.6 300.1,548.1 302.8,547.5 305.5,546.9 308.2,546.3 310.9,545.8 313.6,545.2 316.3,544.6 319.1,543.9 321.8,543.3 324.5,542.7 327.2,542.1 329.9,541.4 332.6,540.8 335.3,540.2 338.0,539.5 340.8,538.8 343.5,538.1 346.2,537.5 348.9,536.8 351.6,536.1 354.3,535.4 357.0,534.7 359.8,533.9 362.5,533.2 365.2,532.5 367.9,531.7 370.6,531.0 373.3,530.2 376.0,529.4 378.8,528.6 381.5,527.8 384.2,527.0 386.9,526.2 389.6,525.4 392.3,524.6 395.0,523.7 397.8,522.9 400.5,522.0 403.2,521.2 405.9,520.3 408.6,519.4 411.3,518.5 414.0,517.6 416.8,516.7 419.5,515.8 422.2,514.8 424.9,513.9 427.6,512.9 430.3,511.9 433.0,511.0 435.8,510.0 438.5,509.0 441.2,508.0 443.9,506.9 446.6,505.9 449.3,504.9 452.1,503.8 454.8,502.7 457.5,501.7 460.2,500.6 462.9,499.5 465.6,498.3 468.4,497.2 471.1,496.1 473.8,494.9 476.5,493.7 479.2,492.6 481.9,491.4 484.7,490.2 487.4,489.0 490.1,487.7 492.8,486.5 495.5,485.2 498.3,484.0 501.0,482.7 503.7,481.4 506.4,480.1 509.1,478.7 511.9,477.4 514.6,476.0 517.3,474.7 520.0,473.3 522.7,471.9 525.5,470.5 528.2,469.1 530.9,467.6 533.6,466.2 536.4,464.7 539.1,463.2 541.8,461.7 544.5,460.2 547.3,458.6 550.0,457.1 552.7,455.5 555.4,453.9 558.2,452.3 560.9,450.7 563.6,449.1 566.3,447.4 569.1,445.8 571.8,444.1 574.5,442.4 577.3,440.7 580.0,438.9 582.7,437.2 585.5,435.4 588.2,433.6 590.9,431.8 593.7,430.0 596.4,428.1 599.1,426.3 601.9,424.4 604.6,422.5 607.3,420.6 610.1,418.6 612.8,416.7 615.5,414.7 618.3,412.7 621.0,410.7 623.8,408.6 626.5,406.6 629.2,404.5 632.0,402.4 634.7,400.2 637.5,398.1 640.2,395.9 643.0,393.7 645.7,391.5 648.5,389.3 651.2,387.0 654.0,384.8 656.7,382.5 659.5,380.1 662.2,377.8 665.0,375.4 667.7,373.0 670.5,370.6 673.2,368.2 676.0,365.7 678.7,363.2 681.5,360.7 684.3,358.2 687.0,355.6 689.8,353.0 692.5,350.4 695.3,347.8 698.1,345.1 700.8,342.4 703.6,339.7 706.4,336.9 709.1,334.2 711.9,331.4 714.7,328.6 717.4,325.7 720.2,322.8 723.0,319.9 725.8,317.0 728.6,314.0 731.3,311.0 734.1,308.0 736.9,305.0 739.7,301.9 742.5,298.8 745.2,295.6 748.0,292.5 750.8,289.3 753.6,286.0 756.4,282.8 759.2,279.5 762.0,276.2 764.8,272.8 767.6,269.4 770.4,266.0 773.2,262.5 776.0,259.1 778.8,255.5 781.6,252.0 784.4,248.4 787.2,244.8 790.0,241.1 792.9,237.4 795.7,233.7 798.5,230.0 801.3,226.2 804.1,222.3 807.0,218.5 809.8,214.6 812.6,210.6 815.4,206.7 818.3,202.7 821.1,198.6 824.0,194.5 826.8,190.4 829.6,186.2" style="fill:none; stroke:#800000; stroke-width:1"/><polyline name="psyrh" points="68.8,574.5 71.5,574.3 74.3,574.0 77.0,573.7 79.7,573.4 82.4,573.1 85.1,572.8 87.8,572.5 90.6,572.2 93.3,571.9 96.0,571.6 98.7,571.3 101.4,571.0 104.1,570.7 106.8,570.3 109.6,570.0 112.3,569.7 115.0,569.3 117.7,569.0 120.4,568.6 123.1,568.2 125.8,567.9 128.5,567.5 131.3,567.1 134.0,566.7 136.7,566.3 139.4,565.9 142.1,565.5 144.8,565.1 147.5,564.7 150.2,564.3 152.9,563.8 155.7,563.4 158.4,563.0 161.1,562.5 163.8,562.1 166.5,561.7 169.2,561.3 171.9,560.9 174.6,560.5 177.4,560.1 180.1,559.6 182.8,559.2 185.5,558.7 188.2,558.3 190.9,557.8 193.6,557.4 196.3,556.9 199.1,556.4 201.8,555.9 204.5,555.5 207.2,555.0 209.9,554.5 212.6,554.0 215.3,553.4 218.0,552.9 220.7,552.4 223.5,551.9 226.2,551.3 228.9,550.8 231.6,550.2 234.3,549.7 237.0,549.1 239.7,548.5 242.4,548.0 245.1,547.4 247.8,546.8 250.6,546.2 253.3,545.6 256.0,545.0 258.7,544.3 261.4,543.7 264.1,543.1 266.8,542.4 269.5,541.8 272.2,541.1 274.9,540.4 277.6,539.7 280.4,539.1 283.1,538.4 285.8,537.7 288.5,536.9 291.2,536.2 293.9,535.5 296.6,534.8 299.3,534.0 302.0,533.2 304.7,532.5 307.4,531.7 310.1,530.9 312.9,530.1 315.6,529.3 318.3,528.5 321.0,527.7 323.7,526.9 326.4,526.0 329.1,525.2 331.8,524.3 334.5,523.4 337.2,522.6 339.9,521.7 342.6,520.8 345.3,519.8 348.1,518.9 350.8,518.0 353.5,517.0 356.2,516.1 358.9,515.1 361.6,514.1 364.3,513.2 367.0,512.1 369.7,511.1 372.4,510.1 375.1,509.1 377.8,508.0 380.5,507.0 383.3,505.9 386.0,504.8 388.7,503.7 391.4,502.6 394.1,501.5 396.8,500.3 399.5,499.2 402.2,498.0 404.9,496.9 407.6,495.7 410.3,494.5 413.0,493.3 415.8,492.0 418.5,490.8 421.2,489.5 423.9,488.3 426.6,487.0 429.3,485.7 432.0,484.4 434.7,483.0 437.4,481.7 440.1,480.4 442.8,479.0 445.6,477.6 448.3,476.2 451.0,474.8 453.7,473.3 456.4,471.9 459.1,470.4 461.8,468.9 464.5,467.4 467.2,465.9 470.0,464.4 472.7,462.9 475.4,461.3 478.1,459.7 480.8,458.1 483.5,456.5 486.2,454.9 488.9,453.2 491.7,451.6 494.4,449.9 497.1,448.2 499.8,446.4 502.5,444.7 505.2,442.9 508.0,441.2 510.7,439.4 513.4,437.5 516.1,435.7 518.8,433.9 521.5,432.0 524.3,430.1 527.0,428.2 529.7,426.2 532.4,424.3 535.1,422.3 537.9,420.3 540.6,418.3 543.3,416.2 546.0,414.2 548.8,412.1 551.5,410.0 554.2,407.9 556.9,405.7 559.6,403.5 562.4,401.3 565.1,399.1 567.8,396.9 570.6,394.6 573.3,392.3 576.0,390.0 578.7,387.7 581.5,385.3 584.2,382.9 586.9,380.5 589.7,378.1 592.4,375.6 595.1,373.1 597.9,370.6 600.6,368.1 603.3,365.5 606.1,362.9 608.8,360.3 611.6,357.7 614.3,355.0 617.0,352.3 619.8,349.6 622.5,346.8 625.3,344.1 628.0,341.3 630.8,338.4 633.5,335.6 636.3,332.7 639.0,329.7 641.7,326.8 644.5,323.8 647.3,320.8 650.0,317.7 652.8,314.7 655.5,311.6 658.3,308.4 661.0,305.3 663.8,302.1 666.5,298.8 669.3,295.6 672.1,292.3 674.8,288.9 677.6,285.6 680.4,282.2 683.1,278.7 685.9,275.3 688.7,271.8 691.4,268.2 694.2,264.7 697.0,261.1 699.8,257.4 702.5,253.7 705.3,250.0 708.1,246.3 710.9,242.5 713.7,238.7 716.5,234.8 719.3,230.9 722.0,227.0 724.8,223.0 727.6,219.0 730.4,214.9 733.2,210.8 736.0,206.7 738.8,202.5 741.6,198.3 744.4,194.0 747.2,189.7 750.0,185.4 752.8,181.0 755.7,176.6 758.5,172.1 761.3,167.6 764.1,163.0 766.9,158.4 769.8,153.8 772.6,149.1 775.4,144.3 778.2,139.6 781.1,134.7 783.9,129.9 786.7,124.9 789.6,120.0 792.4,114.9 795.3,109.9 798.1,104.7 801.0,99.6 803.8,94.4 806.7,89.1 809.5,83.8 812.4,78.4 815.3,73.0 818.1,67.5 821.0,62.0 823.9,56.4 826.8,50.8 827.2,50.0" style="fill:none; stroke:#800000; stroke-width:1"/><polyline name="psyrh" points="68.5,570.7 71.2,570.3 74.0,570.0 76.7,569.6 79.4,569.3 82.1,568.9 84.8,568.5 87.5,568.2 90.2,567.8 92.9,567.4 95.6,567.0 98.4,566.6 101.1,566.2 103.8,565.8 106.5,565.4 109.2,565.0 111.9,564.6 114.6,564.1 117.3,563.7 120.0,563.2 122.7,562.8 125.4,562.3 128.2,561.8 130.9,561.4 133.6,560.9 136.3,560.4 139.0,559.9 141.7,559.4 144.4,558.9 147.1,558.4 149.8,557.8 152.5,557.3 155.2,556.7 157.9,556.2 160.6,555.7 163.3,555.2 166.0,554.7 168.7,554.1 171.5,553.6 174.2,553.1 176.9,552.5 179.6,552.0 182.3,551.5 185.0,550.9 187.7,550.3 190.4,549.8 193.1,549.2 195.8,548.6 198.5,548.0 201.2,547.4 203.9,546.8 206.6,546.2 209.4,545.5 212.1,544.9 214.8,544.3 217.5,543.6 220.2,543.0 222.9,542.3 225.6,541.6 228.3,540.9 231.0,540.3 233.7,539.6 236.4,538.8 239.1,538.1 241.8,537.4 244.5,536.7 247.2,535.9 249.9,535.2 252.6,534.4 255.3,533.6 258.0,532.9 260.7,532.1 263.4,531.3 266.1,530.5 268.8,529.6 271.5,528.8 274.3,528.0 277.0,527.1 279.7,526.2 282.4,525.4 285.1,524.5 287.8,523.6 290.5,522.7 293.2,521.8 295.9,520.9 298.6,519.9 301.3,519.0 304.0,518.0 306.7,517.0 309.4,516.1 312.1,515.1 314.8,514.1 317.5,513.0 320.2,512.0 322.9,511.0 325.6,509.9 328.3,508.8 331.0,507.8 333.7,506.7 336.4,505.6 339.1,504.4 341.8,503.3 344.5,502.2 347.2,501.0 349.9,499.8 352.6,498.7 355.3,497.5 358.0,496.2 360.7,495.0 363.4,493.8 366.1,492.5 368.8,491.2 371.5,490.0 374.2,488.7 376.9,487.3 379.6,486.0 382.3,484.7 385.0,483.3 387.7,481.9 390.4,480.5 393.1,479.1 395.8,477.7 398.5,476.3 401.2,474.8 403.9,473.3 406.6,471.8 409.3,470.3 412.0,468.8 414.7,467.3 417.4,465.7 420.1,464.1 422.8,462.5 425.6,460.9 428.3,459.3 431.0,457.7 433.7,456.0 436.4,454.3 439.1,452.6 441.8,450.9 444.5,449.1 447.2,447.4 449.9,445.6 452.6,443.8 455.3,442.0 458.0,440.1 460.7,438.3 463.4,436.4 466.1,434.5 468.8,432.6 471.5,430.6 474.2,428.7 477.0,426.7 479.7,424.7 482.4,422.6 485.1,420.6 487.8,418.5 490.5,416.4 493.2,414.3 495.9,412.1 498.6,410.0 501.3,407.8 504.0,405.6 506.8,403.3 509.5,401.1 512.2,398.8 514.9,396.5 517.6,394.1 520.3,391.8 523.0,389.4 525.8,387.0 528.5,384.5 531.2,382.1 533.9,379.6 536.6,377.1 539.3,374.5 542.1,371.9 544.8,369.3 547.5,366.7 550.2,364.1 552.9,361.4 555.7,358.7 558.4,355.9 561.1,353.2 563.8,350.4 566.6,347.5 569.3,344.7 572.0,341.8 574.7,338.9 577.5,335.9 580.2,333.0 582.9,330.0 585.7,326.9 588.4,323.8 591.1,320.7 593.9,317.6 596.6,314.4 599.3,311.2 602.1,308.0 604.8,304.7 607.6,301.4 610.3,298.1 613.0,294.7 615.8,291.3 618.5,287.9 621.3,284.4 624.0,280.9 626.8,277.3 629.5,273.7 632.3,270.1 635.0,266.5 637.8,262.8 640.5,259.0 643.3,255.3 646.0,251.4 648.8,247.6 651.5,243.7 654.3,239.8 657.1,235.8 659.8,231.8 662.6,227.7 665.4,223.6 668.1,219.5 670.9,215.3 673.7,211.1 676.4,206.9 679.2,202.5 682.0,198.2 684.8,193.8 687.6,189.4 690.3,184.9 693.1,180.4 695.9,175.8 698.7,171.2 701.5,166.5 704.3,161.8 707.1,157.0 709.9,152.2 712.7,147.4 715.5,142.5 718.3,137.5 721.1,132.5 723.9,127.4 726.7,122.3 729.5,117.2 732.3,112.0 735.1,106.7 737.9,101.4 740.8,96.0 743.6,90.6 746.4,85.2 749.2,79.6 752.1,74.0 754.9,68.4 757.7,62.7 760.6,57.0 763.4,51.2 764.0,50.0" style="fill:none; stroke:#800000; stroke-width:1"/><polyline name="psyrh" points="68.2,566.8 71.0,566.4 73.7,566.0 76.4,565.5 79.1,565.1 81.8,564.7 84.5,564.2 87.2,563.8 89.9,563.3 92.6,562.9 95.3,562.4 98.0,561.9 100.7,561.5 103.4,561.0 106.1,560.5 108.8,560.0 111.5,559.4 114.2,558.9 116.9,558.4 119.6,557.9 122.4,557.3 125.1,556.8 127.8,556.2 130.5,555.6 133.2,555.0 135.9,554.5 138.6,553.9 141.3,553.2 144.0,552.6 146.7,552.0 149.4,551.4 152.1,550.7 154.8,550.1 157.5,549.4 160.2,548.8 162.9,548.2 165.6,547.6 168.3,546.9 171.0,546.3 173.7,545.7 176.4,545.0 179.1,544.4 181.8,543.7 184.5,543.0 187.2,542.4 189.9,541.7 192.6,541.0 195.3,540.3 198.0,539.6 200.7,538.8 203.4,538.1 206.1,537.4 208.8,536.6 211.5,535.8 214.2,535.1 216.9,534.3 219.6,533.5 222.3,532.7 225.0,531.9 227.7,531.1 230.4,530.2 233.1,529.4 235.8,528.6 238.5,527.7 241.2,526.8 243.9,525.9 246.6,525.0 249.3,524.1 252.0,523.2 254.7,522.3 257.4,521.4 260.1,520.4 262.8,519.4 265.5,518.5 268.2,517.5 270.9,516.5 273.6,515.5 276.3,514.4 279.0,513.4 281.7,512.4 284.4,511.3 287.0,510.2 289.7,509.1 292.4,508.0 295.1,506.9 297.8,505.8 300.5,504.7 303.2,503.5 305.9,502.3 308.6,501.2 311.3,500.0 314.0,498.7 316.7,497.5 319.4,496.3 322.1,495.0 324.8,493.8 327.5,492.5 330.2,491.2 332.9,489.9 335.6,488.5 338.3,487.2 341.0,485.8 343.7,484.4 346.3,483.0 349.0,481.6 351.7,480.2 354.4,478.8 357.1,477.3 359.8,475.8 362.5,474.3 365.2,472.8 367.9,471.3 370.6,469.7 373.3,468.2 376.0,466.6 378.7,465.0 381.4,463.4 384.1,461.7 386.8,460.1 389.5,458.4 392.2,456.7 394.9,455.0 397.5,453.2 400.2,451.5 402.9,449.7 405.6,447.9 408.3,446.1 411.0,444.3 413.7,442.4 416.4,440.5 419.1,438.6 421.8,436.7 424.5,434.8 427.2,432.8 429.9,430.8 432.6,428.8 435.3,426.8 438.0,424.7 440.7,422.6 443.4,420.5 446.1,418.4 448.8,416.3 451.5,414.1 454.2,411.9 456.9,409.7 459.6,407.4 462.3,405.2 465.0,402.9 467.7,400.5 470.4,398.2 473.1,395.8 475.8,393.4 478.5,391.0 481.2,388.6 483.9,386.1 486.6,383.6 489.3,381.0 492.0,378.5 494.7,375.9 497.4,373.3 500.1,370.6 502.9,367.9 505.6,365.2 508.3,362.5 511.0,359.7 513.7,357.0 516.4,354.1 519.1,351.3 521.8,348.4 524.5,345.5 527.2,342.5 530.0,339.6 532.7,336.5 535.4,333.5 538.1,330.4 540.8,327.3 543.5,324.2 546.2,321.0 549.0,317.8 551.7,314.5 554.4,311.3 557.1,307.9 559.9,304.6 562.6,301.2 565.3,297.8 568.0,294.3 570.7,290.8 573.5,287.3 576.2,283.7 578.9,280.1 581.7,276.5 584.4,272.8 587.1,269.1 589.9,265.3 592.6,261.5 595.3,257.7 598.1,253.8 600.8,249.9 603.5,245.9 606.3,241.9 609.0,237.9 611.8,233.8 614.5,229.7 617.3,225.5 620.0,221.3 622.7,217.0 625.5,212.7 628.2,208.3 631.0,203.9 633.8,199.5 636.5,195.0 639.3,190.5 642.0,185.9 644.8,181.3 647.6,176.6 650.3,171.9 653.1,167.1 655.8,162.3 658.6,157.4 661.4,152.5 664.2,147.5 666.9,142.4 669.7,137.4 672.5,132.2 675.3,127.1 678.1,121.8 680.8,116.5 683.6,111.2 686.4,105.8 689.2,100.3 692.0,94.8 694.8,89.2 697.6,83.6 700.4,77.9 703.2,72.2 706.0,66.4 708.8,60.5 711.6,54.6 713.8,50.0" style="fill:none; stroke:#800000; stroke-width:1"/><polyline name="psyrh" points="67.9,562.9 70.7,562.4 73.4,561.9 76.1,561.4 78.8,561.0 81.5,560.4 84.2,559.9 86.9,559.4 89.6,558.9 92.3,558.3 95.0,557.8 97.7,557.2 100.4,556.7 103.1,556.1 105.8,555.5 108.5,554.9 111.2,554.3 113.9,553.7 116.6,553.1 119.3,552.5 122.0,551.8 124.7,551.2 127.4,550.5 130.1,549.9 132.8,549.2 135.5,548.5 138.1,547.8 140.8,547.1 143.5,546.4 146.2,545.6 148.9,544.9 151.6,544.1 154.3,543.4 157.0,542.6 159.7,541.9 162.4,541.2 165.1,540.5 167.8,539.7 170.5,539.0 173.2,538.2 175.9,537.5 178.6,536.7 181.3,536.0 184.0,535.2 186.7,534.4 189.4,533.6 192.1,532.8 194.8,531.9 197.5,531.1 200.2,530.3 202.9,529.4 205.6,528.5 208.3,527.7 210.9,526.8 213.6,525.9 216.3,525.0 219.0,524.0 221.7,523.1 224.4,522.2 227.1,521.2 229.8,520.2 232.5,519.2 235.2,518.3 237.9,517.2 240.6,516.2 243.3,515.2 246.0,514.1 248.7,513.1 251.3,512.0 254.0,510.9 256.7,509.8 259.4,508.7 262.1,507.6 264.8,506.5 267.5,505.3 270.2,504.1 272.9,502.9 275.6,501.8 278.3,500.5 280.9,499.3 283.6,498.1 286.3,496.8 289.0,495.5 291.7,494.3 294.4,493.0 297.1,491.6 299.8,490.3 302.5,489.0 305.2,487.6 307.8,486.2 310.5,484.8 313.2,483.4 315.9,482.0 318.6,480.5 321.3,479.0 324.0,477.6 326.7,476.1 329.4,474.5 332.0,473.0 334.7,471.4 337.4,469.9 340.1,468.3 342.8,466.7 345.5,465.0 348.2,463.4 350.9,461.7 353.6,460.0 356.2,458.3 358.9,456.6 361.6,454.8 364.3,453.0 367.0,451.3 369.7,449.4 372.4,447.6 375.1,445.8 377.7,443.9 380.4,442.0 383.1,440.1 385.8,438.1 388.5,436.2 391.2,434.2 393.9,432.2 396.6,430.1 399.3,428.1 401.9,426.0 404.6,423.9 407.3,421.8 410.0,419.6 412.7,417.4 415.4,415.2 418.1,413.0 420.8,410.8 423.5,408.5 426.2,406.2 428.9,403.8 431.5,401.5 434.2,399.1 436.9,396.7 439.6,394.3 442.3,391.8 445.0,389.3 447.7,386.8 450.4,384.2 453.1,381.7 455.8,379.1 458.5,376.4 461.2,373.8 463.9,371.1 466.6,368.3 469.3,365.6 472.0,362.8 474.6,360.0 477.3,357.1 480.0,354.3 482.7,351.4 485.4,348.4 488.1,345.4 490.8,342.4 493.5,339.4 496.2,336.3 498.9,333.2 501.6,330.1 504.4,326.9 507.1,323.7 509.8,320.4 512.5,317.2 515.2,313.9 517.9,310.5 520.6,307.1 523.3,303.7 526.0,300.2 528.7,296.7 531.4,293.2 534.1,289.6 536.8,286.0 539.6,282.3 542.3,278.6 545.0,274.9 547.7,271.1 550.4,267.3 553.1,263.5 555.9,259.6 558.6,255.6 561.3,251.6 564.0,247.6 566.7,243.5 569.5,239.4 572.2,235.3 574.9,231.1 577.6,226.8 580.4,222.5 583.1,218.2 585.8,213.8 588.6,209.4 591.3,204.9 594.0,200.4 596.8,195.8 599.5,191.2 602.2,186.5 605.0,181.8 607.7,177.0 610.5,172.2 613.2,167.3 616.0,162.4 618.7,157.4 621.5,152.4 624.2,147.3 627.0,142.2 629.7,137.0 632.5,131.7 635.2,126.4 638.0,121.1 640.8,115.7 643.5,110.2 646.3,104.7 649.1,99.1 651.8,93.5 654.6,87.8 657.4,82.0 660.2,76.2 662.9,70.3 665.7,64.4 668.5,58.3 671.3,52.3 672.3,50.0" style="fill:none; stroke:#800000; stroke-width:1"/><polyline name="psyrh" points="67.7,559.0 70.4,558.5 73.1,557.9 75.8,557.4 78.5,556.8 81.2,556.2 83.8,555.6 86.5,555.0 89.2,554.4 91.9,553.8 94.6,553.2 97.3,552.6 100.0,551.9 102.7,551.3 105.4,550.6 108.1,549.9 110.8,549.2 113.5,548.5 116.2,547.8 118.9,547.1 121.6,546.4 124.3,545.6 127.0,544.9 129.7,544.1 132.4,543.3 135.0,542.6 137.7,541.8 140.4,540.9 143.1,540.1 145.8,539.3 148.5,538.4 151.2,537.6 153.9,536.7 156.6,535.8 159.2,535.0 161.9,534.2 164.6,533.3 167.3,532.5 170.0,531.7 172.7,530.8 175.4,530.0 178.1,529.1 180.8,528.2 183.5,527.3 186.2,526.4 188.9,525.5 191.6,524.5 194.2,523.6 196.9,522.6 199.6,521.7 202.3,520.7 205.0,519.7 207.7,518.7 210.4,517.7 213.1,516.7 215.8,515.6 218.5,514.6 221.1,513.5 223.8,512.4 226.5,511.3 229.2,510.2 231.9,509.1 234.6,507.9 237.3,506.8 240.0,505.6 242.6,504.4 245.3,503.2 248.0,502.0 250.7,500.8 253.4,499.5 256.1,498.3 258.8,497.0 261.4,495.7 264.1,494.4 266.8,493.1 269.5,491.8 272.2,490.4 274.9,489.0 277.6,487.6 280.2,486.2 282.9,484.8 285.6,483.4 288.3,481.9 291.0,480.4 293.7,479.0 296.3,477.4 299.0,475.9 301.7,474.4 304.4,472.8 307.1,471.2 309.8,469.6 312.4,468.0 315.1,466.4 317.8,464.7 320.5,463.0 323.2,461.3 325.9,459.6 328.5,457.8 331.2,456.1 333.9,454.3 336.6,452.5 339.3,450.7 341.9,448.8 344.6,446.9 347.3,445.0 350.0,443.1 352.7,441.2 355.4,439.2 358.0,437.2 360.7,435.2 363.4,433.2 366.1,431.2 368.8,429.1 371.4,427.0 374.1,424.8 376.8,422.7 379.5,420.5 382.2,418.3 384.9,416.1 387.5,413.8 390.2,411.6 392.9,409.2 395.6,406.9 398.3,404.6 400.9,402.2 403.6,399.8 406.3,397.3 409.0,394.8 411.7,392.3 414.4,389.8 417.1,387.3 419.7,384.7 422.4,382.1 425.1,379.4 427.8,376.7 430.5,374.0 433.2,371.3 435.8,368.5 438.5,365.7 441.2,362.9 443.9,360.0 446.6,357.2 449.3,354.2 452.0,351.3 454.7,348.3 457.3,345.2 460.0,342.2 462.7,339.1 465.4,336.0 468.1,332.8 470.8,329.6 473.5,326.4 476.2,323.1 478.9,319.8 481.6,316.4 484.3,313.1 487.0,309.6 489.6,306.2 492.3,302.7 495.0,299.1 497.7,295.6 500.4,292.0 503.1,288.3 505.8,284.6 508.5,280.9 511.2,277.1 513.9,273.3 516.6,269.4 519.3,265.5 522.0,261.6 524.7,257.6 527.5,253.6 530.2,249.5 532.9,245.4 535.6,241.2 538.3,237.0 541.0,232.7 543.7,228.4 546.4,224.1 549.1,219.7 551.9,215.2 554.6,210.7 557.3,206.2 560.0,201.6 562.7,197.0 565.4,192.3 568.2,187.5 570.9,182.7 573.6,177.9 576.3,173.0 579.1,168.1 581.8,163.0 584.5,158.0 587.3,152.9 590.0,147.7 592.7,142.5 595.5,137.2 598.2,131.9 600.9,126.5 603.7,121.0 606.4,115.5 609.2,110.0 611.9,104.3 614.7,98.6 617.4,92.9 620.2,87.1 622.9,81.2 625.7,75.3 628.4,69.3 631.2,63.2 634.0,57.1 636.7,50.9 637.1,50.0" style="fill:none; stroke:#800000; stroke-width:1"/><polyline name="psyrh" points="67.4,555.1 70.1,554.5 72.8,553.9 75.4,553.3 78.1,552.6 80.8,552.0 83.5,551.3 86.2,550.6 88.9,550.0 91.6,549.3 94.3,548.6 97.0,547.9 99.7,547.1 102.4,546.4 105.1,545.6 107.8,544.9 110.4,544.1 113.1,543.3 115.8,542.5 118.5,541.7 121.2,540.9 123.9,540.1 126.6,539.2 129.3,538.4 131.9,537.5 134.6,536.6 137.3,535.7 140.0,534.8 142.7,533.9 145.4,532.9 148.1,532.0 150.7,531.0 153.4,530.0 156.1,529.0 158.8,528.0 161.5,527.1 164.2,526.2 166.9,525.3 169.5,524.3 172.2,523.4 174.9,522.4 177.6,521.4 180.3,520.4 183.0,519.4 185.7,518.4 188.4,517.4 191.0,516.3 193.7,515.2 196.4,514.2 199.1,513.1 201.8,512.0 204.5,510.9 207.1,509.7 209.8,508.6 212.5,507.4 215.2,506.2 217.9,505.0 220.6,503.8 223.2,502.6 225.9,501.4 228.6,500.1 231.3,498.9 234.0,497.6 236.7,496.3 239.3,495.0 242.0,493.6 244.7,492.3 247.4,490.9 250.1,489.5 252.7,488.1 255.4,486.7 258.1,485.3 260.8,483.8 263.5,482.4 266.1,480.9 268.8,479.4 271.5,477.8 274.2,476.3 276.9,474.7 279.5,473.1 282.2,471.5 284.9,469.9 287.6,468.3 290.2,466.6 292.9,464.9 295.6,463.2 298.3,461.5 300.9,459.7 303.6,458.0 306.3,456.2 309.0,454.4 311.7,452.6 314.3,450.7 317.0,448.8 319.7,446.9 322.4,445.0 325.0,443.1 327.7,441.1 330.4,439.1 333.1,437.1 335.7,435.1 338.4,433.0 341.1,430.9 343.8,428.8 346.4,426.7 349.1,424.5 351.8,422.3 354.5,420.1 357.1,417.9 359.8,415.6 362.5,413.3 365.2,411.0 367.8,408.6 370.5,406.3 373.2,403.9 375.9,401.4 378.5,399.0 381.2,396.5 383.9,394.0 386.6,391.4 389.2,388.8 391.9,386.2 394.6,383.6 397.3,380.9 399.9,378.2 402.6,375.5 405.3,372.8 408.0,370.0 410.7,367.1 413.3,364.3 416.0,361.4 418.7,358.5 421.4,355.5 424.0,352.5 426.7,349.5 429.4,346.5 432.1,343.4 434.8,340.2 437.4,337.1 440.1,333.9 442.8,330.6 445.5,327.4 448.2,324.1 450.8,320.7 453.5,317.3 456.2,313.9 458.9,310.4 461.6,306.9 464.3,303.4 466.9,299.8 469.6,296.2 472.3,292.5 475.0,288.8 477.7,285.1 480.4,281.3 483.1,277.5 485.8,273.6 488.4,269.7 491.1,265.7 493.8,261.7 496.5,257.7 499.2,253.6 501.9,249.4 504.6,245.3 507.3,241.0 510.0,236.8 512.7,232.4 515.4,228.1 518.1,223.6 520.8,219.2 523.5,214.6 526.2,210.1 528.9,205.5 531.6,200.8 534.3,196.1 537.0,191.3 539.7,186.5 542.4,181.6 545.1,176.7 547.8,171.7 550.6,166.6 553.3,161.5 556.0,156.4 558.7,151.2 561.4,145.9 564.1,140.6 566.9,135.2 569.6,129.7 572.3,124.2 575.0,118.7 577.8,113.1 580.5,107.4 583.2,101.6 585.9,95.8 588.7,90.0 591.4,84.0 594.1,78.0 596.9,72.0 599.6,65.8 602.4,59.6 605.1,53.4 606.6,50.0" style="fill:none; stroke:#800000; stroke-width:1"/><polyline name="psyrh" points="67.1,551.2 69.8,550.6 72.4,549.9 75.1,549.2 77.8,548.5 80.5,547.7 83.2,547.0 85.9,546.3 88.6,545.5 91.3,544.7 94.0,543.9 96.7,543.1 99.3,542.3 102.0,541.5 104.7,540.7 107.4,539.8 110.1,539.0 112.8,538.1 115.4,537.2 118.1,536.3 120.8,535.4 123.5,534.5 126.2,533.5 128.9,532.6 131.5,531.6 134.2,530.6 136.9,529.6 139.6,528.6 142.3,527.6 144.9,526.5 147.6,525.5 150.3,524.4 153.0,523.3 155.6,522.2 158.3,521.1 161.0,520.1 163.7,519.1 166.4,518.0 169.1,517.0 171.7,515.9 174.4,514.8 177.1,513.7 179.8,512.6 182.5,511.5 185.2,510.4 187.8,509.2 190.5,508.1 193.2,506.9 195.9,505.7 198.6,504.5 201.2,503.2 203.9,502.0 206.6,500.7 209.3,499.5 212.0,498.2 214.6,496.9 217.3,495.5 220.0,494.2 222.7,492.8 225.3,491.5 228.0,490.1 230.7,488.6 233.4,487.2 236.0,485.8 238.7,484.3 241.4,482.8 244.1,481.3 246.7,479.8 249.4,478.3 252.1,476.7 254.8,475.1 257.4,473.5 260.1,471.9 262.8,470.3 265.5,468.6 268.1,466.9 270.8,465.2 273.5,463.5 276.1,461.8 278.8,460.0 281.5,458.2 284.2,456.4 286.8,454.6 289.5,452.7 292.2,450.9 294.8,449.0 297.5,447.0 300.2,445.1 302.9,443.1 305.5,441.1 308.2,439.1 310.9,437.1 313.5,435.0 316.2,432.9 318.9,430.8 321.5,428.7 324.2,426.5 326.9,424.3 329.6,422.1 332.2,419.8 334.9,417.6 337.6,415.3 340.2,413.0 342.9,410.6 345.6,408.2 348.2,405.8 350.9,403.4 353.6,400.9 356.2,398.4 358.9,395.9 361.6,393.3 364.2,390.7 366.9,388.1 369.6,385.5 372.2,382.8 374.9,380.1 377.6,377.3 380.3,374.6 382.9,371.8 385.6,368.9 388.3,366.0 390.9,363.1 393.6,360.2 396.3,357.2 398.9,354.2 401.6,351.2 404.3,348.1 407.0,345.0 409.6,341.8 412.3,338.6 415.0,335.4 417.6,332.2 420.3,328.9 423.0,325.5 425.7,322.2 428.3,318.7 431.0,315.3 433.7,311.8 436.3,308.3 439.0,304.7 441.7,301.1 444.4,297.4 447.0,293.7 449.7,290.0 452.4,286.2 455.1,282.4 457.7,278.5 460.4,274.6 463.1,270.6 465.8,266.6 468.5,262.6 471.1,258.5 473.8,254.4 476.5,250.2 479.2,245.9 481.9,241.7 484.6,237.3 487.2,233.0 489.9,228.5 492.6,224.1 495.3,219.5 498.0,215.0 500.7,210.3 503.4,205.6 506.1,200.9 508.7,196.1 511.4,191.3 514.1,186.4 516.8,181.4 519.5,176.4 522.2,171.4 524.9,166.3 527.6,161.1 530.3,155.9 533.0,150.6 535.7,145.2 538.4,139.8 541.1,134.4 543.8,128.8 546.5,123.2 549.2,117.6 552.0,111.9 554.7,106.1 557.4,100.3 560.1,94.4 562.8,88.4 565.5,82.4 568.3,76.3 571.0,70.1 573.7,63.9 576.4,57.5 579.2,51.2 579.6,50.0" style="fill:none; stroke:#800000; stroke-width:1"/>
                                    <line name="psyh" x1="107.6" y1="590.0" x2="68.5" y2="570.0" style="fill:none; stroke:#008000; stroke-width:1"/><line name="psyh" x1="170.8" y1="590.0" x2="65.9" y2="536.3" style="fill:none; stroke:#008000; stroke-width:1"/><line name="psyh" x1="233.9" y1="590.0" x2="63.4" y2="502.7" style="fill:none; stroke:#008000; stroke-width:1"/><line name="psyh" x1="297.1" y1="590.0" x2="84.4" y2="481.2" style="fill:none; stroke:#008000; stroke-width:1"/><line name="psyh" x1="360.2" y1="590.0" x2="105.4" y2="459.6" style="fill:none; stroke:#008000; stroke-width:1"/><line name="psyh" x1="423.3" y1="590.0" x2="126.5" y2="438.0" style="fill:none; stroke:#008000; stroke-width:1"/><line name="psyh" x1="486.5" y1="590.0" x2="147.5" y2="416.5" style="fill:none; stroke:#008000; stroke-width:1"/><line name="psyh" x1="549.6" y1="590.0" x2="168.5" y2="394.9" style="fill:none; stroke:#008000; stroke-width:1"/><line name="psyh" x1="612.8" y1="590.0" x2="189.5" y2="373.4" style="fill:none; stroke:#008000; stroke-width:1"/><line name="psyh" x1="675.9" y1="590.0" x2="210.6" y2="351.8" style="fill:none; stroke:#008000; stroke-width:1"/><line name="psyh" x1="739.1" y1="590.0" x2="231.6" y2="330.3" style="fill:none; stroke:#008000; stroke-width:1"/><line name="psyh" x1="802.2" y1="590.0" x2="252.6" y2="308.7" style="fill:none; stroke:#008000; stroke-width:1"/><line name="psyh" x1="830.0" y1="571.4" x2="273.7" y2="287.0" style="fill:none; stroke:#008000; stroke-width:1"/><line name="psyh" x1="830.0" y1="539.1" x2="294.8" y2="265.5" style="fill:none; stroke:#008000; stroke-width:1"/><line name="psyh" x1="830.0" y1="506.8" x2="315.8" y2="243.9" style="fill:none; stroke:#008000; stroke-width:1"/><line name="psyh" x1="830.0" y1="474.4" x2="336.8" y2="222.3" style="fill:none; stroke:#008000; stroke-width:1"/><line name="psyh" x1="830.0" y1="442.1" x2="357.8" y2="200.8" style="fill:none; stroke:#008000; stroke-width:1"/><line name="psyh" x1="830.0" y1="409.8" x2="378.9" y2="179.2" style="fill:none; stroke:#008000; stroke-width:1"/><line name="psyh" x1="830.0" y1="377.5" x2="399.9" y2="157.7" style="fill:none; stroke:#008000; stroke-width:1"/><line name="psyh" x1="830.0" y1="345.2" x2="420.9" y2="136.1" style="fill:none; stroke:#008000; stroke-width:1"/><line name="psyh" x1="830.0" y1="312.9" x2="441.9" y2="114.6" style="fill:none; stroke:#008000; stroke-width:1"/><line name="psyh" x1="830.0" y1="280.5" x2="462.9" y2="93.1" style="fill:none; stroke:#008000; stroke-width:1"/><line name="psyh" x1="830.0" y1="248.2" x2="483.9" y2="71.5" style="fill:none; stroke:#008000; stroke-width:1"/><line name="psyh" x1="830.0" y1="215.9" x2="504.9" y2="50.0" style="fill:none; stroke:#008000; stroke-width:1"/><line name="psyh" x1="830.0" y1="183.6" x2="568.0" y2="50.0" style="fill:none; stroke:#008000; stroke-width:1"/><line name="psyh" x1="830.0" y1="151.3" x2="631.2" y2="50.0" style="fill:none; stroke:#008000; stroke-width:1"/><line name="psyh" x1="830.0" y1="118.9" x2="694.3" y2="50.0" style="fill:none; stroke:#008000; stroke-width:1"/><line name="psyh" x1="830.0" y1="86.6" x2="757.4" y2="50.0" style="fill:none; stroke:#008000; stroke-width:1"/><line name="psyh" x1="830.0" y1="54.3" x2="820.6" y2="50.0" style="fill:none; stroke:#008000; stroke-width:1"/>
                                    <line name="psyh" x1="65.5" y1="500.6" x2="78.9" y2="507.4" style="fill:none; stroke:#008000; stroke-width:1"/><line name="psyh" x1="67.6" y1="498.4" x2="81.0" y2="505.3" style="fill:none; stroke:#008000; stroke-width:1"/><line name="psyh" x1="69.7" y1="496.3" x2="83.1" y2="503.1" style="fill:none; stroke:#008000; stroke-width:1"/><line name="psyh" x1="71.8" y1="494.1" x2="85.2" y2="501.0" style="fill:none; stroke:#008000; stroke-width:1"/><line name="psyh" x1="73.9" y1="491.9" x2="92.7" y2="501.5" style="fill:none; stroke:#008000; stroke-width:1"/><line name="psyh" x1="76.0" y1="489.8" x2="89.4" y2="496.6" style="fill:none; stroke:#008000; stroke-width:1"/><line name="psyh" x1="78.1" y1="487.6" x2="91.5" y2="494.5" style="fill:none; stroke:#008000; stroke-width:1"/><line name="psyh" x1="80.2" y1="485.5" x2="93.6" y2="492.3" style="fill:none; stroke:#008000; stroke-width:1"/><line name="psyh" x1="82.3" y1="483.3" x2="95.7" y2="490.2" style="fill:none; stroke:#008000; stroke-width:1"/><line name="psyh" x1="86.5" y1="479.0" x2="99.9" y2="485.9" style="fill:none; stroke:#008000; stroke-width:1"/><line name="psyh" x1="88.6" y1="476.9" x2="102.0" y2="483.7" style="fill:none; stroke:#008000; stroke-width:1"/><line name="psyh" x1="90.7" y1="474.7" x2="104.1" y2="481.6" style="fill:none; stroke:#008000; stroke-width:1"/><line name="psyh" x1="92.8" y1="472.5" x2="106.2" y2="479.4" style="fill:none; stroke:#008000; stroke-width:1"/><line name="psyh" x1="94.9" y1="470.4" x2="113.7" y2="480.0" style="fill:none; stroke:#008000; stroke-width:1"/><line name="psyh" x1="97.0" y1="468.2" x2="110.4" y2="475.1" style="fill:none; stroke:#008000; stroke-width:1"/><line name="psyh" x1="99.1" y1="466.1" x2="112.5" y2="472.9" style="fill:none; stroke:#008000; stroke-width:1"/><line name="psyh" x1="101.2" y1="463.9" x2="114.6" y2="470.8" style="fill:none; stroke:#008000; stroke-width:1"/><line name="psyh" x1="103.3" y1="461.8" x2="116.7" y2="468.6" style="fill:none; stroke:#008000; stroke-width:1"/><line name="psyh" x1="107.5" y1="457.5" x2="120.9" y2="464.3" style="fill:none; stroke:#008000; stroke-width:1"/><line name="psyh" x1="109.6" y1="455.3" x2="123.0" y2="462.2" style="fill:none; stroke:#008000; stroke-width:1"/><line name="psyh" x1="111.7" y1="453.1" x2="125.1" y2="460.0" style="fill:none; stroke:#008000; stroke-width:1"/><line name="psyh" x1="113.8" y1="451.0" x2="127.3" y2="457.8" style="fill:none; stroke:#008000; stroke-width:1"/><line name="psyh" x1="116.0" y1="448.8" x2="134.7" y2="458.4" style="fill:none; stroke:#008000; stroke-width:1"/><line name="psyh" x1="118.1" y1="446.7" x2="131.5" y2="453.5" style="fill:none; stroke:#008000; stroke-width:1"/><line name="psyh" x1="120.2" y1="444.5" x2="133.6" y2="451.4" style="fill:none; stroke:#008000; stroke-width:1"/><line name="psyh" x1="122.3" y1="442.4" x2="135.7" y2="449.2" style="fill:none; stroke:#008000; stroke-width:1"/><line name="psyh" x1="124.4" y1="440.2" x2="137.8" y2="447.1" style="fill:none; stroke:#008000; stroke-width:1"/><line name="psyh" x1="128.6" y1="435.9" x2="142.0" y2="442.8" style="fill:none; stroke:#008000; stroke-width:1"/><line name="psyh" x1="130.7" y1="433.7" x2="144.1" y2="440.6" style="fill:none; stroke:#008000; stroke-width:1"/><line name="psyh" x1="132.8" y1="431.6" x2="146.2" y2="438.4" style="fill:none; stroke:#008000; stroke-width:1"/><line name="psyh" x1="134.9" y1="429.4" x2="148.3" y2="436.3" style="fill:none; stroke:#008000; stroke-width:1"/><line name="psyh" x1="137.0" y1="427.3" x2="155.7" y2="436.9" style="fill:none; stroke:#008000; stroke-width:1"/><line name="psyh" x1="139.1" y1="425.1" x2="152.5" y2="432.0" style="fill:none; stroke:#008000; stroke-width:1"/><line name="psyh" x1="141.2" y1="423.0" x2="154.6" y2="429.8" style="fill:none; stroke:#008000; stroke-width:1"/><line name="psyh" x1="143.3" y1="420.8" x2="156.7" y2="427.7" style="fill:none; stroke:#008000; stroke-width:1"/><line name="psyh" x1="145.4" y1="418.6" x2="158.8" y2="425.5" style="fill:none; stroke:#008000; stroke-width:1"/><line name="psyh" x1="149.6" y1="414.3" x2="163.0" y2="421.2" style="fill:none; stroke:#008000; stroke-width:1"/><line name="psyh" x1="151.7" y1="412.2" x2="165.1" y2="419.0" style="fill:none; stroke:#008000; stroke-width:1"/><line name="psyh" x1="153.8" y1="410.0" x2="167.2" y2="416.9" style="fill:none; stroke:#008000; stroke-width:1"/><line name="psyh" x1="155.9" y1="407.9" x2="169.3" y2="414.7" style="fill:none; stroke:#008000; stroke-width:1"/><line name="psyh" x1="158.0" y1="405.7" x2="176.8" y2="415.3" style="fill:none; stroke:#008000; stroke-width:1"/><line name="psyh" x1="160.1" y1="403.6" x2="173.5" y2="410.4" style="fill:none; stroke:#008000; stroke-width:1"/><line name="psyh" x1="162.2" y1="401.4" x2="175.6" y2="408.3" style="fill:none; stroke:#008000; stroke-width:1"/><line name="psyh" x1="164.3" y1="399.2" x2="177.7" y2="406.1" style="fill:none; stroke:#008000; stroke-width:1"/><line name="psyh" x1="166.4" y1="397.1" x2="179.8" y2="403.9" style="fill:none; stroke:#008000; stroke-width:1"/><line name="psyh" x1="170.6" y1="392.8" x2="184.0" y2="399.6" style="fill:none; stroke:#008000; stroke-width:1"/><line name="psyh" x1="172.7" y1="390.6" x2="186.1" y2="397.5" style="fill:none; stroke:#008000; stroke-width:1"/><line name="psyh" x1="174.8" y1="388.5" x2="188.2" y2="395.3" style="fill:none; stroke:#008000; stroke-width:1"/><line name="psyh" x1="176.9" y1="386.3" x2="190.3" y2="393.2" style="fill:none; stroke:#008000; stroke-width:1"/><line name="psyh" x1="179.0" y1="384.2" x2="197.8" y2="393.8" style="fill:none; stroke:#008000; stroke-width:1"/><line name="psyh" x1="181.1" y1="382.0" x2="194.5" y2="388.9" style="fill:none; stroke:#008000; stroke-width:1"/><line name="psyh" x1="183.2" y1="379.8" x2="196.6" y2="386.7" style="fill:none; stroke:#008000; stroke-width:1"/><line name="psyh" x1="185.3" y1="377.7" x2="198.7" y2="384.5" style="fill:none; stroke:#008000; stroke-width:1"/><line name="psyh" x1="187.4" y1="375.5" x2="200.8" y2="382.4" style="fill:none; stroke:#008000; stroke-width:1"/><line name="psyh" x1="191.6" y1="371.2" x2="205.0" y2="378.1" style="fill:none; stroke:#008000; stroke-width:1"/><line name="psyh" x1="193.7" y1="369.1" x2="207.1" y2="375.9" style="fill:none; stroke:#008000; stroke-width:1"/><line name="psyh" x1="195.8" y1="366.9" x2="209.2" y2="373.8" style="fill:none; stroke:#008000; stroke-width:1"/><line name="psyh" x1="197.9" y1="364.8" x2="211.3" y2="371.6" style="fill:none; stroke:#008000; stroke-width:1"/><line name="psyh" x1="200.0" y1="362.6" x2="218.8" y2="372.2" style="fill:none; stroke:#008000; stroke-width:1"/><line name="psyh" x1="202.1" y1="360.4" x2="215.5" y2="367.3" style="fill:none; stroke:#008000; stroke-width:1"/><line name="psyh" x1="204.2" y1="358.3" x2="217.6" y2="365.1" style="fill:none; stroke:#008000; stroke-width:1"/><line name="psyh" x1="206.3" y1="356.1" x2="219.8" y2="363.0" style="fill:none; stroke:#008000; stroke-width:1"/><line name="psyh" x1="208.5" y1="354.0" x2="221.9" y2="360.8" style="fill:none; stroke:#008000; stroke-width:1"/><line name="psyh" x1="212.7" y1="349.7" x2="226.1" y2="356.5" style="fill:none; stroke:#008000; stroke-width:1"/><line name="psyh" x1="214.8" y1="347.5" x2="228.2" y2="354.4" style="fill:none; stroke:#008000; stroke-width:1"/><line name="psyh" x1="216.9" y1="345.3" x2="230.3" y2="352.2" style="fill:none; stroke:#008000; stroke-width:1"/><line name="psyh" x1="219.0" y1="343.2" x2="232.4" y2="350.1" style="fill:none; stroke:#008000; stroke-width:1"/><line name="psyh" x1="221.1" y1="341.0" x2="239.8" y2="350.6" style="fill:none; stroke:#008000; stroke-width:1"/><line name="psyh" x1="223.2" y1="338.9" x2="236.6" y2="345.7" style="fill:none; stroke:#008000; stroke-width:1"/><line name="psyh" x1="225.3" y1="336.7" x2="238.7" y2="343.6" style="fill:none; stroke:#008000; stroke-width:1"/><line name="psyh" x1="227.4" y1="334.6" x2="240.8" y2="341.4" style="fill:none; stroke:#008000; stroke-width:1"/><line name="psyh" x1="229.5" y1="332.4" x2="242.9" y2="339.3" style="fill:none; stroke:#008000; stroke-width:1"/><line name="psyh" x1="233.7" y1="328.1" x2="247.1" y2="335.0" style="fill:none; stroke:#008000; stroke-width:1"/><line name="psyh" x1="235.8" y1="325.9" x2="249.2" y2="332.8" style="fill:none; stroke:#008000; stroke-width:1"/><line name="psyh" x1="237.9" y1="323.8" x2="251.3" y2="330.6" style="fill:none; stroke:#008000; stroke-width:1"/><line name="psyh" x1="240.0" y1="321.6" x2="253.4" y2="328.5" style="fill:none; stroke:#008000; stroke-width:1"/><line name="psyh" x1="242.1" y1="319.5" x2="260.8" y2="329.1" style="fill:none; stroke:#008000; stroke-width:1"/><line name="psyh" x1="244.2" y1="317.3" x2="257.6" y2="324.2" style="fill:none; stroke:#008000; stroke-width:1"/><line name="psyh" x1="246.3" y1="315.2" x2="259.7" y2="322.0" style="fill:none; stroke:#008000; stroke-width:1"/><line name="psyh" x1="248.4" y1="313.0" x2="261.8" y2="319.9" style="fill:none; stroke:#008000; stroke-width:1"/><line name="psyh" x1="250.5" y1="310.9" x2="263.9" y2="317.7" style="fill:none; stroke:#008000; stroke-width:1"/><line name="psyh" x1="254.7" y1="306.5" x2="268.1" y2="313.4" style="fill:none; stroke:#008000; stroke-width:1"/><line name="psyh" x1="256.8" y1="304.4" x2="270.2" y2="311.2" style="fill:none; stroke:#008000; stroke-width:1"/><line name="psyh" x1="258.9" y1="302.2" x2="272.3" y2="309.1" style="fill:none; stroke:#008000; stroke-width:1"/><line name="psyh" x1="261.0" y1="300.1" x2="274.4" y2="306.9" style="fill:none; stroke:#008000; stroke-width:1"/><line name="psyh" x1="263.1" y1="297.9" x2="281.9" y2="307.5" style="fill:none; stroke:#008000; stroke-width:1"/><line name="psyh" x1="265.2" y1="295.8" x2="278.6" y2="302.6" style="fill:none; stroke:#008000; stroke-width:1"/><line name="psyh" x1="267.3" y1="293.6" x2="280.7" y2="300.5" style="fill:none; stroke:#008000; stroke-width:1"/><line name="psyh" x1="269.4" y1="291.5" x2="282.8" y2="298.3" style="fill:none; stroke:#008000; stroke-width:1"/><line name="psyh" x1="271.5" y1="289.3" x2="284.9" y2="296.2" style="fill:none; stroke:#008000; stroke-width:1"/><line name="psyh" x1="275.7" y1="285.0" x2="289.1" y2="291.8" style="fill:none; stroke:#008000; stroke-width:1"/><line name="psyh" x1="277.8" y1="282.8" x2="291.2" y2="289.7" style="fill:none; stroke:#008000; stroke-width:1"/><line name="psyh" x1="279.9" y1="280.7" x2="293.3" y2="287.5" style="fill:none; stroke:#008000; stroke-width:1"/><line name="psyh" x1="282.0" y1="278.5" x2="295.4" y2="285.4" style="fill:none; stroke:#008000; stroke-width:1"/><line name="psyh" x1="284.1" y1="276.4" x2="302.9" y2="286.0" style="fill:none; stroke:#008000; stroke-width:1"/><line name="psyh" x1="286.2" y1="274.2" x2="299.6" y2="281.1" style="fill:none; stroke:#008000; stroke-width:1"/><line name="psyh" x1="288.3" y1="272.1" x2="301.7" y2="278.9" style="fill:none; stroke:#008000; stroke-width:1"/><line name="psyh" x1="290.4" y1="269.9" x2="303.8" y2="276.8" style="fill:none; stroke:#008000; stroke-width:1"/><line name="psyh" x1="292.5" y1="267.7" x2="305.9" y2="274.6" style="fill:none; stroke:#008000; stroke-width:1"/><line name="psyh" x1="296.7" y1="263.4" x2="310.1" y2="270.3" style="fill:none; stroke:#008000; stroke-width:1"/><line name="psyh" x1="298.8" y1="261.3" x2="312.2" y2="268.1" style="fill:none; stroke:#008000; stroke-width:1"/><line name="psyh" x1="300.9" y1="259.1" x2="314.4" y2="266.0" style="fill:none; stroke:#008000; stroke-width:1"/><line name="psyh" x1="303.1" y1="257.0" x2="316.5" y2="263.8" style="fill:none; stroke:#008000; stroke-width:1"/><line name="psyh" x1="305.2" y1="254.8" x2="323.9" y2="264.4" style="fill:none; stroke:#008000; stroke-width:1"/><line name="psyh" x1="307.3" y1="252.6" x2="320.7" y2="259.5" style="fill:none; stroke:#008000; stroke-width:1"/><line name="psyh" x1="309.4" y1="250.5" x2="322.8" y2="257.4" style="fill:none; stroke:#008000; stroke-width:1"/><line name="psyh" x1="311.5" y1="248.3" x2="324.9" y2="255.2" style="fill:none; stroke:#008000; stroke-width:1"/><line name="psyh" x1="313.6" y1="246.2" x2="327.0" y2="253.0" style="fill:none; stroke:#008000; stroke-width:1"/><line name="psyh" x1="317.8" y1="241.9" x2="331.2" y2="248.7" style="fill:none; stroke:#008000; stroke-width:1"/><line name="psyh" x1="319.9" y1="239.7" x2="333.3" y2="246.6" style="fill:none; stroke:#008000; stroke-width:1"/><line name="psyh" x1="322.0" y1="237.6" x2="335.4" y2="244.4" style="fill:none; stroke:#008000; stroke-width:1"/><line name="psyh" x1="324.1" y1="235.4" x2="337.5" y2="242.3" style="fill:none; stroke:#008000; stroke-width:1"/><line name="psyh" x1="326.2" y1="233.2" x2="344.9" y2="242.8" style="fill:none; stroke:#008000; stroke-width:1"/><line name="psyh" x1="328.3" y1="231.1" x2="341.7" y2="237.9" style="fill:none; stroke:#008000; stroke-width:1"/><line name="psyh" x1="330.4" y1="228.9" x2="343.8" y2="235.8" style="fill:none; stroke:#008000; stroke-width:1"/><line name="psyh" x1="332.5" y1="226.8" x2="345.9" y2="233.6" style="fill:none; stroke:#008000; stroke-width:1"/><line name="psyh" x1="334.6" y1="224.6" x2="348.0" y2="231.5" style="fill:none; stroke:#008000; stroke-width:1"/><line name="psyh" x1="338.8" y1="220.3" x2="352.2" y2="227.2" style="fill:none; stroke:#008000; stroke-width:1"/><line name="psyh" x1="340.9" y1="218.2" x2="354.3" y2="225.0" style="fill:none; stroke:#008000; stroke-width:1"/><line name="psyh" x1="343.0" y1="216.0" x2="356.4" y2="222.9" style="fill:none; stroke:#008000; stroke-width:1"/><line name="psyh" x1="345.1" y1="213.8" x2="358.5" y2="220.7" style="fill:none; stroke:#008000; stroke-width:1"/><line name="psyh" x1="347.2" y1="211.7" x2="366.0" y2="221.3" style="fill:none; stroke:#008000; stroke-width:1"/><line name="psyh" x1="349.3" y1="209.5" x2="362.7" y2="216.4" style="fill:none; stroke:#008000; stroke-width:1"/><line name="psyh" x1="351.4" y1="207.4" x2="364.8" y2="214.2" style="fill:none; stroke:#008000; stroke-width:1"/><line name="psyh" x1="353.5" y1="205.2" x2="366.9" y2="212.1" style="fill:none; stroke:#008000; stroke-width:1"/><line name="psyh" x1="355.6" y1="203.1" x2="369.0" y2="209.9" style="fill:none; stroke:#008000; stroke-width:1"/><line name="psyh" x1="359.8" y1="198.8" x2="373.2" y2="205.6" style="fill:none; stroke:#008000; stroke-width:1"/><line name="psyh" x1="361.9" y1="196.6" x2="375.3" y2="203.5" style="fill:none; stroke:#008000; stroke-width:1"/><line name="psyh" x1="364.0" y1="194.4" x2="377.4" y2="201.3" style="fill:none; stroke:#008000; stroke-width:1"/><line name="psyh" x1="366.1" y1="192.3" x2="379.5" y2="199.1" style="fill:none; stroke:#008000; stroke-width:1"/><line name="psyh" x1="368.2" y1="190.1" x2="387.0" y2="199.7" style="fill:none; stroke:#008000; stroke-width:1"/><line name="psyh" x1="370.3" y1="188.0" x2="383.7" y2="194.8" style="fill:none; stroke:#008000; stroke-width:1"/><line name="psyh" x1="372.4" y1="185.8" x2="385.8" y2="192.7" style="fill:none; stroke:#008000; stroke-width:1"/><line name="psyh" x1="374.5" y1="183.7" x2="387.9" y2="190.5" style="fill:none; stroke:#008000; stroke-width:1"/><line name="psyh" x1="376.6" y1="181.5" x2="390.0" y2="188.4" style="fill:none; stroke:#008000; stroke-width:1"/><line name="psyh" x1="380.8" y1="177.2" x2="394.2" y2="184.1" style="fill:none; stroke:#008000; stroke-width:1"/><line name="psyh" x1="382.9" y1="175.0" x2="396.3" y2="181.9" style="fill:none; stroke:#008000; stroke-width:1"/><line name="psyh" x1="385.0" y1="172.9" x2="398.4" y2="179.7" style="fill:none; stroke:#008000; stroke-width:1"/><line name="psyh" x1="387.1" y1="170.7" x2="400.5" y2="177.6" style="fill:none; stroke:#008000; stroke-width:1"/><line name="psyh" x1="389.2" y1="168.6" x2="408.0" y2="178.2" style="fill:none; stroke:#008000; stroke-width:1"/><line name="psyh" x1="391.3" y1="166.4" x2="404.7" y2="173.3" style="fill:none; stroke:#008000; stroke-width:1"/><line name="psyh" x1="393.4" y1="164.3" x2="406.9" y2="171.1" style="fill:none; stroke:#008000; stroke-width:1"/><line name="psyh" x1="395.6" y1="162.1" x2="409.0" y2="169.0" style="fill:none; stroke:#008000; stroke-width:1"/><line name="psyh" x1="397.7" y1="159.9" x2="411.1" y2="166.8" style="fill:none; stroke:#008000; stroke-width:1"/><line name="psyh" x1="401.9" y1="155.6" x2="415.3" y2="162.5" style="fill:none; stroke:#008000; stroke-width:1"/><line name="psyh" x1="404.0" y1="153.5" x2="417.4" y2="160.3" style="fill:none; stroke:#008000; stroke-width:1"/><line name="psyh" x1="406.1" y1="151.3" x2="419.5" y2="158.2" style="fill:none; stroke:#008000; stroke-width:1"/><line name="psyh" x1="408.2" y1="149.2" x2="421.6" y2="156.0" style="fill:none; stroke:#008000; stroke-width:1"/><line name="psyh" x1="410.3" y1="147.0" x2="429.0" y2="156.6" style="fill:none; stroke:#008000; stroke-width:1"/><line name="psyh" x1="412.4" y1="144.9" x2="425.8" y2="151.7" style="fill:none; stroke:#008000; stroke-width:1"/><line name="psyh" x1="414.5" y1="142.7" x2="427.9" y2="149.6" style="fill:none; stroke:#008000; stroke-width:1"/><line name="psyh" x1="416.6" y1="140.5" x2="430.0" y2="147.4" style="fill:none; stroke:#008000; stroke-width:1"/><line name="psyh" x1="418.7" y1="138.4" x2="432.1" y2="145.2" style="fill:none; stroke:#008000; stroke-width:1"/><line name="psyh" x1="422.9" y1="134.1" x2="436.3" y2="140.9" style="fill:none; stroke:#008000; stroke-width:1"/><line name="psyh" x1="425.0" y1="131.9" x2="438.4" y2="138.8" style="fill:none; stroke:#008000; stroke-width:1"/><line name="psyh" x1="427.1" y1="129.8" x2="440.5" y2="136.6" style="fill:none; stroke:#008000; stroke-width:1"/><line name="psyh" x1="429.2" y1="127.6" x2="442.6" y2="134.5" style="fill:none; stroke:#008000; stroke-width:1"/><line name="psyh" x1="431.3" y1="125.5" x2="450.1" y2="135.1" style="fill:none; stroke:#008000; stroke-width:1"/><line name="psyh" x1="433.4" y1="123.3" x2="446.8" y2="130.2" style="fill:none; stroke:#008000; stroke-width:1"/><line name="psyh" x1="435.5" y1="121.1" x2="448.9" y2="128.0" style="fill:none; stroke:#008000; stroke-width:1"/><line name="psyh" x1="437.6" y1="119.0" x2="451.0" y2="125.8" style="fill:none; stroke:#008000; stroke-width:1"/><line name="psyh" x1="439.7" y1="116.8" x2="453.1" y2="123.7" style="fill:none; stroke:#008000; stroke-width:1"/><line name="psyh" x1="443.9" y1="112.5" x2="457.3" y2="119.4" style="fill:none; stroke:#008000; stroke-width:1"/><line name="psyh" x1="446.0" y1="110.4" x2="459.4" y2="117.2" style="fill:none; stroke:#008000; stroke-width:1"/><line name="psyh" x1="448.1" y1="108.2" x2="461.5" y2="115.1" style="fill:none; stroke:#008000; stroke-width:1"/><line name="psyh" x1="450.2" y1="106.1" x2="463.6" y2="112.9" style="fill:none; stroke:#008000; stroke-width:1"/><line name="psyh" x1="452.3" y1="103.9" x2="471.1" y2="113.5" style="fill:none; stroke:#008000; stroke-width:1"/><line name="psyh" x1="454.4" y1="101.7" x2="467.8" y2="108.6" style="fill:none; stroke:#008000; stroke-width:1"/><line name="psyh" x1="456.5" y1="99.6" x2="469.9" y2="106.4" style="fill:none; stroke:#008000; stroke-width:1"/><line name="psyh" x1="458.6" y1="97.4" x2="472.0" y2="104.3" style="fill:none; stroke:#008000; stroke-width:1"/><line name="psyh" x1="460.7" y1="95.3" x2="474.1" y2="102.1" style="fill:none; stroke:#008000; stroke-width:1"/><line name="psyh" x1="464.9" y1="91.0" x2="478.3" y2="97.8" style="fill:none; stroke:#008000; stroke-width:1"/><line name="psyh" x1="467.0" y1="88.8" x2="480.4" y2="95.7" style="fill:none; stroke:#008000; stroke-width:1"/><line name="psyh" x1="469.1" y1="86.6" x2="482.5" y2="93.5" style="fill:none; stroke:#008000; stroke-width:1"/><line name="psyh" x1="471.2" y1="84.5" x2="484.6" y2="91.4" style="fill:none; stroke:#008000; stroke-width:1"/><line name="psyh" x1="473.3" y1="82.3" x2="492.1" y2="91.9" style="fill:none; stroke:#008000; stroke-width:1"/><line name="psyh" x1="475.4" y1="80.2" x2="488.8" y2="87.0" style="fill:none; stroke:#008000; stroke-width:1"/><line name="psyh" x1="477.5" y1="78.0" x2="490.9" y2="84.9" style="fill:none; stroke:#008000; stroke-width:1"/><line name="psyh" x1="479.6" y1="75.9" x2="493.0" y2="82.7" style="fill:none; stroke:#008000; stroke-width:1"/><line name="psyh" x1="481.7" y1="73.7" x2="495.1" y2="80.6" style="fill:none; stroke:#008000; stroke-width:1"/><line name="psyh" x1="485.9" y1="69.4" x2="499.3" y2="76.3" style="fill:none; stroke:#008000; stroke-width:1"/><line name="psyh" x1="488.0" y1="67.2" x2="501.5" y2="74.1" style="fill:none; stroke:#008000; stroke-width:1"/><line name="psyh" x1="490.2" y1="65.1" x2="503.6" y2="72.0" style="fill:none; stroke:#008000; stroke-width:1"/><line name="psyh" x1="492.3" y1="62.9" x2="505.7" y2="69.8" style="fill:none; stroke:#008000; stroke-width:1"/><line name="psyh" x1="494.4" y1="60.8" x2="513.1" y2="70.4" style="fill:none; stroke:#008000; stroke-width:1"/><line name="psyh" x1="496.5" y1="58.6" x2="509.9" y2="65.5" style="fill:none; stroke:#008000; stroke-width:1"/><line name="psyh" x1="498.6" y1="56.5" x2="512.0" y2="63.3" style="fill:none; stroke:#008000; stroke-width:1"/><line name="psyh" x1="500.7" y1="54.3" x2="514.1" y2="61.2" style="fill:none; stroke:#008000; stroke-width:1"/><line name="psyh" x1="502.8" y1="52.2" x2="516.2" y2="59.0" style="fill:none; stroke:#008000; stroke-width:1"/>
                                    <polyline name="psyh" points="67.1,551.2 63.4,502.7 504.9,50.0 579.6,50.0" style="fill:none; stroke:#000000; stroke-width:2"/><polyline points="67.1,551.2 70.0,590.0 829.0,590.0 829.0,50.0 579.6,50.0" style="fill:none; stroke:#000000; stroke-width:2"/>
                                    <text name="psyt" x="64.0" y="604.6" fill="#000000">20</text><text name="psyt" x="102.0" y="604.6" fill="#000000">25</text><text name="psyt" x="139.9" y="604.6" fill="#000000">30</text><text name="psyt" x="177.9" y="604.6" fill="#000000">35</text><text name="psyt" x="215.8" y="604.6" fill="#000000">40</text><text name="psyt" x="253.8" y="604.6" fill="#000000">45</text><text name="psyt" x="291.7" y="604.6" fill="#000000">50</text><text name="psyt" x="329.7" y="604.6" fill="#000000">55</text><text name="psyt" x="367.6" y="604.6" fill="#000000">60</text><text name="psyt" x="405.6" y="604.6" fill="#000000">65</text><text name="psyt" x="443.5" y="604.6" fill="#000000">70</text><text name="psyt" x="481.5" y="604.6" fill="#000000">75</text><text name="psyt" x="519.4" y="604.6" fill="#000000">80</text><text name="psyt" x="557.4" y="604.6" fill="#000000">85</text><text name="psyt" x="595.3" y="604.6" fill="#000000">90</text><text name="psyt" x="633.3" y="604.6" fill="#000000">95</text><text name="psyt" x="668.2" y="604.6" fill="#000000">100</text><text name="psyt" x="706.2" y="604.6" fill="#000000">105</text><text name="psyt" x="744.1" y="604.6" fill="#000000">110</text><text name="psyt" x="782.0" y="604.6" fill="#000000">115</text><text name="psyt" x="820.0" y="604.6" fill="#000000">120</text>
                                    <text name="psysh" x="834.0" y="593.0" fill="#000000">0</text><text name="psysh" x="834.0" y="575.0" fill="#000000">1</text><text name="psysh" x="834.0" y="557.0" fill="#000000">2</text><text name="psysh" x="834.0" y="539.0" fill="#000000">3</text><text name="psysh" x="834.0" y="521.0" fill="#000000">4</text><text name="psysh" x="834.0" y="503.0" fill="#000000">5</text><text name="psysh" x="834.0" y="485.0" fill="#000000">6</text><text name="psysh" x="834.0" y="467.0" fill="#000000">7</text><text name="psysh" x="834.0" y="449.0" fill="#000000">8</text><text name="psysh" x="834.0" y="431.0" fill="#000000">9</text><text name="psysh" x="834.0" y="413.0" fill="#000000">10</text><text name="psysh" x="834.0" y="395.0" fill="#000000">11</text><text name="psysh" x="834.0" y="377.0" fill="#000000">12</text><text name="psysh" x="834.0" y="359.0" fill="#000000">13</text><text name="psysh" x="834.0" y="341.0" fill="#000000">14</text><text name="psysh" x="834.0" y="323.0" fill="#000000">15</text><text name="psysh" x="834.0" y="305.0" fill="#000000">16</text><text name="psysh" x="834.0" y="287.0" fill="#000000">17</text><text name="psysh" x="834.0" y="269.0" fill="#000000">18</text><text name="psysh" x="834.0" y="251.0" fill="#000000">19</text><text name="psysh" x="834.0" y="233.0" fill="#000000">20</text><text name="psysh" x="834.0" y="215.0" fill="#000000">21</text><text name="psysh" x="834.0" y="197.0" fill="#000000">22</text><text name="psysh" x="834.0" y="179.0" fill="#000000">23</text><text name="psysh" x="834.0" y="161.0" fill="#000000">24</text><text name="psysh" x="834.0" y="143.0" fill="#000000">25</text><text name="psysh" x="834.0" y="125.0" fill="#000000">26</text><text name="psysh" x="834.0" y="107.0" fill="#000000">27</text><text name="psysh" x="834.0" y="89.0" fill="#000000">28</text><text name="psysh" x="834.0" y="71.0" fill="#000000">29</text><text name="psysh" x="834.0" y="53.0" fill="#000000">30</text>
                                    <text name="psyv" x="306.3" y="479.7" fill="#008080" transform="rotate(68.3 306.3,479.7)">13.0 ft^3/lb(d.a)</text><text name="psyv" x="572.9" y="392.0" fill="#008080" transform="rotate(68.4 572.9,392.0)">14.0</text><text name="psyv" x="783.2" y="157.4" fill="#008080" transform="rotate(67.9 783.2,157.4)">15.0</text>
                                    <text name="psyrh" x="598.1" y="531.1" fill="#800000" transform="rotate(-12.2 598.1,531.1)">10%</text><text name="psyrh" x="578.4" y="484.7" fill="#800000" transform="rotate(-22.4 578.4,484.7)">20%</text><text name="psyrh" x="561.7" y="443.4" fill="#800000" transform="rotate(-30.5 561.7,443.4)">30%</text><text name="psyrh" x="546.9" y="406.0" fill="#800000" transform="rotate(-37.0 546.9,406.0)">40%</text><text name="psyrh" x="533.6" y="371.7" fill="#800000" transform="rotate(-42.3 533.6,371.7)">50%</text><text name="psyrh" x="521.5" y="340.0" fill="#800000" transform="rotate(-46.5 521.5,340.0)">60%</text><text name="psyrh" x="510.3" y="310.5" fill="#800000" transform="rotate(-50.0 510.3,310.5)">70%</text><text name="psyrh" x="499.8" y="282.9" fill="#800000" transform="rotate(-53.0 499.8,282.9)">80%</text><text name="psyrh" x="489.9" y="257.0" fill="#800000" transform="rotate(-55.4 489.9,257.0)">90%</text>
                                    <text name="psyh" x="56.5" y="567.0" fill="#008000">6</text><text name="psyh" x="53.9" y="533.3" fill="#008000">8</text><text name="psyh" x="46.4" y="499.7" fill="#008000">10</text><text name="psyh" x="67.4" y="478.2" fill="#008000">12</text><text name="psyh" x="88.4" y="456.6" fill="#008000">14</text><text name="psyh" x="109.5" y="435.0" fill="#008000">16</text><text name="psyh" x="130.5" y="413.5" fill="#008000">18</text><text name="psyh" x="151.5" y="391.9" fill="#008000">20</text><text name="psyh" x="172.5" y="370.4" fill="#008000">22</text><text name="psyh" x="193.6" y="348.8" fill="#008000">24</text><text name="psyh" x="214.6" y="327.3" fill="#008000">26</text><text name="psyh" x="235.6" y="305.7" fill="#008000">28</text><text name="psyh" x="256.7" y="284.0" fill="#008000">30</text><text name="psyh" x="277.8" y="262.5" fill="#008000">32</text><text name="psyh" x="298.8" y="240.9" fill="#008000">34</text><text name="psyh" x="319.8" y="219.3" fill="#008000">36</text><text name="psyh" x="340.8" y="197.8" fill="#008000">38</text><text name="psyh" x="361.9" y="176.2" fill="#008000">40</text><text name="psyh" x="382.9" y="154.7" fill="#008000">42</text><text name="psyh" x="403.9" y="133.1" fill="#008000">44</text><text name="psyh" x="424.9" y="111.6" fill="#008000">46</text><text name="psyh" x="445.9" y="90.1" fill="#008000">48</text><text name="psyh" x="466.9" y="68.5" fill="#008000">50</text><text name="psyh" x="487.9" y="47.0" fill="#008000">52</text><text name="psyh" x="551.0" y="47.0" fill="#008000">54</text><text name="psyh" x="614.2" y="47.0" fill="#008000">56</text><text name="psyh" x="677.3" y="47.0" fill="#008000">58</text><text name="psyh" x="740.4" y="47.0" fill="#008000">60</text><text name="psyh" x="779.6" y="47.0" fill="#008000">BTU/lb(d.a)</text>
                                    <text name="psyt" x="297.0" y="625.0" fill="#000000" style="font-weight: bold; font-size:12">Dry Bulb Temperature, F.   Pressure =  29.921 inHg</text>
                                    <text name="psysh" x="877.0" y="401.0" fill="#000000" transform="rotate(-90 872.0,401.0)" style="font-weight: bold; font-size:12">Humidity Ratio, lb/klb(d.a)</text>
                                    <path name="psyprot" d="M 93.5 75.1 a 100.0 100.0 0 1 0 200.0 0" fill="none" stroke="#000000" stroke-width="1"/><line name="psyprot" x1="113.3" y1="75.1" x2="273.7" y2="75.1" style="fill:none; stroke:#000000; stroke-width:1"/><line name="psyprot" x1="193.5" y1="67.5" x2="193.5" y2="82.6" style="fill:none; stroke:#000000; stroke-width: 1"/><circle name="psyprot" cx="193.5" cy="75.1" r="5.0" stroke="#000000" stroke-width="1" fill="none"/><line name="psyprot" x1="88.2" y1="75.1" x2="93.2" y2="75.1" style="fill:none; stroke:#000000; stroke-width:1"/><line name="psyprot" x1="298.7" y1="75.1" x2="293.7" y2="75.1" style="fill:none; stroke:#000000; stroke-width:1"/><text name="psyprot" x="157.5" y="125.2" style="font-size:7px; fill:#000000;">SENSIBLE HEAT</text><text name="psyprot" x="221.5" y="125.2" style="font-size:7px; fill:#000000;">Qs</text><line name="psyprot" x1="157.5" y1="127.6" x2="209.5" y2="127.6" style="fill:none; stroke:#000000; stroke-width: 1;"/><line name="psyprot" x1="221.5" y1="127.6" x2="229.5" y2="127.6" style="fill:none; stroke:#000000; stroke-width: 1;"/><text name="psyprot" x="163.5" y="134.8" style="font-size:7px; fill:#000000;">TOTAL HEAT</text><text name="psyprot" x="221.5" y="134.8" style="font-size:7px; fill:#000000;">Qt</text><text name="psyprot" x="213.5" y="130.0" style="font-size:7px; fill:#000000;">=</text><text name="psyprot" x="155.5" y="215.4" font-size="7" fill="#000000">HUMIDITY RATIO</text><text name="psyprot" x="219.5" y="215.4" font-size="7" fill="#000000">W</text><line name="psyprot" x1="155.5" y1="208.2" x2="211.5" y2="208.2" style="fill:none; stroke:#000000; stroke-width: 1"/><line name="psyprot" x1="219.5" y1="208.2" x2="231.5" y2="208.2" style="fill:none; stroke:#000000; stroke-width: 1"/><text name="psyprot" x="167.5" y="205.8" font-size="7" fill="#000000">ENTHALPY</text><text name="psyprot" x="219.5" y="205.8" font-size="7" fill="#000000">H</text><text name="psyprot" x="212.3" y="210.6" font-size="7" fill="#000000">=</text><text name="psyprot" x="300.8" y="77.1" font-size="7" fill="#000000">-</text><text name="psyprot" x="305.2" y="73.1" font-size="7" fill="#000000" transform="rotate(90 305.2,73.1)">8</text><text name="psyprot" x="78.1" y="73.1" font-size="7" fill="#000000" transform="rotate(90 78.1,73.1)">8</text><line name="psyprot" x1="193.5" y1="175.3" x2="193.5" y2="170.3" style="fill:none; stroke:#000000; stroke-width: 1"/><text name="psyprot" x="189.5" y="174.8" font-size="7" fill="#000000" transform="rotate(-90.0 189.5,168.4)">0.0</text><line name="psyprot" x1="175.2" y1="173.6" x2="176.2" y2="168.7" style="fill:none; stroke:#000000; stroke-width: 1"/><text name="psyprot" x="172.6" y="172.5" font-size="7" fill="#000000" transform="rotate(-79.5 172.6,166.1)">0.1</text><line name="psyprot" x1="152.2" y1="166.4" x2="154.2" y2="161.8" style="fill:none; stroke:#000000; stroke-width: 1"/><text name="psyprot" x="151.4" y="164.8" font-size="7" fill="#000000" transform="rotate(-65.7 151.4,158.4)">0.2</text><line name="psyprot" x1="131.0" y1="153.5" x2="134.2" y2="149.6" style="fill:none; stroke:#000000; stroke-width: 1"/><text name="psyprot" x="132.2" y="152.0" font-size="7" fill="#000000" transform="rotate(-51.5 132.2,145.6)">0.3</text><line name="psyprot" x1="115.1" y1="137.5" x2="119.0" y2="134.4" style="fill:none; stroke:#000000; stroke-width: 1"/><text name="psyprot" x="118.0" y="136.5" font-size="7" fill="#000000" transform="rotate(-38.6 118.0,130.1)">0.4</text><line name="psyprot" x1="104.8" y1="121.8" x2="109.2" y2="119.5" style="fill:none; stroke:#000000; stroke-width: 1"/><text name="psyprot" x="109.1" y="121.5" font-size="7" fill="#000000" transform="rotate(-27.8 109.1,115.1)">0.5</text><line name="psyprot" x1="98.9" y1="108.2" x2="103.6" y2="106.5" style="fill:none; stroke:#000000; stroke-width: 1"/><text name="psyprot" x="104.1" y="108.5" font-size="7" fill="#000000" transform="rotate(-19.3 104.1,102.1)">0.6</text><line name="psyprot" x1="95.7" y1="97.0" x2="100.6" y2="95.9" style="fill:none; stroke:#000000; stroke-width: 1"/><text name="psyprot" x="101.5" y="98.0" font-size="7" fill="#000000" transform="rotate(-12.6 101.5,91.6)">0.7</text><line name="psyprot" x1="94.1" y1="88.0" x2="99.0" y2="87.4" style="fill:none; stroke:#000000; stroke-width: 1"/><text name="psyprot" x="100.4" y="89.6" font-size="7" fill="#000000" transform="rotate(-7.4 100.4,83.2)">0.8</text><line name="psyprot" x1="93.4" y1="80.8" x2="98.4" y2="80.6" style="fill:none; stroke:#000000; stroke-width: 1"/><text name="psyprot" x="100.1" y="82.9" font-size="7" fill="#000000" transform="rotate(-3.3 100.1,76.5)">0.9</text><line name="psyprot" x1="93.2" y1="75.1" x2="98.2" y2="75.1" style="fill:none; stroke:#000000; stroke-width: 1"/><text name="psyprot" x="100.2" y="77.5" font-size="7" fill="#000000" transform="rotate(0.0 100.2,71.1)">1.0</text><line name="psyprot" x1="293.7" y1="75.1" x2="288.7" y2="75.1" style="fill:none; stroke:#000000; stroke-width: 1"/><text name="psyprot" x="274.8" y="77.5" font-size="7" fill="#000000" transform="rotate(0.0 274.8,71.1)">1.0</text><line name="psyprot" x1="292.3" y1="92.1" x2="287.3" y2="91.2" style="fill:none; stroke:#000000; stroke-width: 1"/><text name="psyprot" x="274.3" y="91.3" font-size="7" fill="#000000" transform="rotate(9.8 274.3,84.9)">1.5</text><line name="psyprot" x1="290.6" y1="100.1" x2="285.7" y2="98.8" style="fill:none; stroke:#000000; stroke-width: 1"/><text name="psyprot" x="273.2" y="97.9" font-size="7" fill="#000000" transform="rotate(14.5 273.2,91.5)">2.0</text><line name="psyprot" x1="287.0" y1="111.1" x2="282.4" y2="109.3" style="fill:none; stroke:#000000; stroke-width: 1"/><text name="psyprot" x="270.8" y="107.0" font-size="7" fill="#000000" transform="rotate(21.1 270.8,100.6)">4.0</text><line name="psyprot" x1="284.9" y1="116.1" x2="280.4" y2="114.0" style="fill:none; stroke:#000000; stroke-width: 1"/><text name="psyprot" x="269.3" y="111.1" font-size="7" fill="#000000" transform="rotate(24.2 269.3,104.7)">8.0</text><line name="psyprot" x1="226.6" y1="169.7" x2="224.9" y2="165.0" style="fill:none; stroke:#000000; stroke-width: 1"/><text name="psyprot" x="223.4" y="155.0" font-size="7" fill="#000000" transform="rotate(70.7 223.4,148.6)">-0.2</text><line name="psyprot" x1="249.3" y1="158.3" x2="246.5" y2="154.2" style="fill:none; stroke:#000000; stroke-width: 1"/><text name="psyprot" x="241.0" y="145.1" font-size="7" fill="#000000" transform="rotate(56.2 241.0,138.7)">-0.5</text><line name="psyprot" x1="264.1" y1="146.3" x2="260.5" y2="142.7" style="fill:none; stroke:#000000; stroke-width: 1"/><text name="psyprot" x="252.2" y="135.0" font-size="7" fill="#000000" transform="rotate(45.3 252.2,128.6)">-1.0</text><line name="psyprot" x1="273.2" y1="135.8" x2="269.2" y2="132.8" style="fill:none; stroke:#000000; stroke-width: 1"/><text name="psyprot" x="259.0" y="126.4" font-size="7" fill="#000000" transform="rotate(37.3 259.0,120.0)">-2.0</text><line name="psyprot" x1="278.0" y1="128.9" x2="273.8" y2="126.3" style="fill:none; stroke:#000000; stroke-width: 1"/><text name="psyprot" x="262.5" y="120.7" font-size="7" fill="#000000" transform="rotate(32.5 262.5,114.3)">-4.0</text><line name="psyprot" x1="282.6" y1="120.9" x2="287.1" y2="123.2" style="fill:none; stroke:#000000; stroke-width: 1"/><text name="psyprot" x="290.8" y="127.0" font-size="7" fill="#000000" transform="rotate(27.2 290.8,120.6)">0.0</text><line name="psyprot" x1="280.9" y1="124.2" x2="283.1" y2="125.4" style="fill:none; stroke:#000000; stroke-width: 1"/><line name="psyprot" x1="278.7" y1="127.9" x2="280.8" y2="129.2" style="fill:none; stroke:#000000; stroke-width: 1"/><line name="psyprot" x1="275.4" y1="132.8" x2="277.5" y2="134.3" style="fill:none; stroke:#000000; stroke-width: 1"/><line name="psyprot" x1="271.8" y1="137.7" x2="273.7" y2="139.2" style="fill:none; stroke:#000000; stroke-width: 1"/><line name="psyprot" x1="267.2" y1="143.0" x2="270.9" y2="146.4" style="fill:none; stroke:#000000; stroke-width: 1"/><text name="psyprot" x="275.1" y="151.3" font-size="7" fill="#000000" transform="rotate(42.7 275.1,144.9)">0.5</text><line name="psyprot" x1="260.1" y1="150.0" x2="261.8" y2="151.8" style="fill:none; stroke:#000000; stroke-width: 1"/><line name="psyprot" x1="252.2" y1="156.3" x2="253.7" y2="158.3" style="fill:none; stroke:#000000; stroke-width: 1"/><line name="psyprot" x1="242.2" y1="162.7" x2="243.4" y2="164.9" style="fill:none; stroke:#000000; stroke-width: 1"/><line name="psyprot" x1="227.6" y1="169.3" x2="228.4" y2="171.7" style="fill:none; stroke:#000000; stroke-width: 1"/><line name="psyprot" x1="212.6" y1="173.5" x2="213.6" y2="178.4" style="fill:none; stroke:#000000; stroke-width: 1"/><text name="psyprot" x="217.9" y="186.1" font-size="7" fill="#000000" transform="rotate(79.0 217.9,179.7)">1.0</text><line name="psyprot" x1="196.3" y1="175.3" x2="196.3" y2="177.8" style="fill:none; stroke:#000000; stroke-width: 1"/><line name="psyprot" x1="179.7" y1="174.4" x2="179.3" y2="176.8" style="fill:none; stroke:#000000; stroke-width: 1"/><line name="psyprot" x1="161.8" y1="170.2" x2="161.0" y2="172.5" style="fill:none; stroke:#000000; stroke-width: 1"/><line name="psyprot" x1="148.6" y1="164.7" x2="147.5" y2="167.0" style="fill:none; stroke:#000000; stroke-width: 1"/><line name="psyprot" x1="137.8" y1="158.5" x2="136.5" y2="160.5" style="fill:none; stroke:#000000; stroke-width: 1"/><line name="psyprot" x1="128.0" y1="151.0" x2="126.4" y2="152.9" style="fill:none; stroke:#000000; stroke-width: 1"/><line name="psyprot" x1="121.6" y1="144.9" x2="119.8" y2="146.7" style="fill:none; stroke:#000000; stroke-width: 1"/><line name="psyprot" x1="116.6" y1="139.4" x2="114.7" y2="141.0" style="fill:none; stroke:#000000; stroke-width: 1"/><line name="psyprot" x1="112.1" y1="133.6" x2="110.1" y2="135.1" style="fill:none; stroke:#000000; stroke-width: 1"/><line name="psyprot" x1="109.1" y1="129.2" x2="104.9" y2="131.9" style="fill:none; stroke:#000000; stroke-width: 1"/><text name="psyprot" x="90.9" y="142.6" font-size="7" fill="#000000" transform="rotate(-32.7 90.9,136.2)">2.0</text><line name="psyprot" x1="100.8" y1="113.4" x2="98.5" y2="114.3" style="fill:none; stroke:#000000; stroke-width: 1"/><line name="psyprot" x1="97.5" y1="104.1" x2="92.7" y2="105.5" style="fill:none; stroke:#000000; stroke-width: 1"/><text name="psyprot" x="78.1" y="112.2" font-size="7" fill="#000000" transform="rotate(-16.8 78.1,105.8)">3.0</text><line name="psyprot" x1="96.0" y1="98.3" x2="93.5" y2="98.9" style="fill:none; stroke:#000000; stroke-width: 1"/><line name="psyprot" x1="95.1" y1="94.5" x2="90.2" y2="95.5" style="fill:none; stroke:#000000; stroke-width: 1"/><text name="psyprot" x="75.6" y="100.7" font-size="7" fill="#000000" transform="rotate(-11.2 75.6,94.3)">4.0</text><line name="psyprot" x1="94.6" y1="91.7" x2="92.2" y2="92.1" style="fill:none; stroke:#000000; stroke-width: 1"/><line name="psyprot" x1="94.3" y1="89.6" x2="89.3" y2="90.4" style="fill:none; stroke:#000000; stroke-width: 1"/><line name="psyprot" x1="93.9" y1="86.7" x2="88.9" y2="87.3" style="fill:none; stroke:#000000; stroke-width: 1"/><text name="psyprot" x="74.5" y="91.3" font-size="7" fill="#000000" transform="rotate(-6.7 74.5,84.9)">6.0</text><line name="psyprot" x1="93.7" y1="84.7" x2="88.7" y2="85.2" style="fill:none; stroke:#000000; stroke-width: 1"/><line name="psyprot" x1="93.6" y1="83.3" x2="88.6" y2="83.8" style="fill:none; stroke:#000000; stroke-width: 1"/><line name="psyprot" x1="93.5" y1="82.3" x2="88.5" y2="82.6" style="fill:none; stroke:#000000; stroke-width: 1"/><line name="psyprot" x1="93.4" y1="81.5" x2="88.4" y2="81.8" style="fill:none; stroke:#000000; stroke-width: 1"/><line name="psyprot" x1="288.0" y1="108.4" x2="292.8" y2="110.1" style="fill:none; stroke:#000000; stroke-width: 1"/><text name="psyprot" x="296.1" y="113.4" font-size="7" fill="#000000" transform="rotate(19.4 296.1,107.0)">-0.5</text><line name="psyprot" x1="290.3" y1="101.2" x2="295.1" y2="102.5" style="fill:none; stroke:#000000; stroke-width: 1"/><text name="psyprot" x="298.2" y="105.6" font-size="7" fill="#000000" transform="rotate(15.1 298.2,99.2)">-1.0</text><line name="psyprot" x1="291.4" y1="96.4" x2="296.3" y2="97.5" style="fill:none; stroke:#000000; stroke-width: 1"/><line name="psyprot" x1="292.1" y1="93.2" x2="297.0" y2="94.1" style="fill:none; stroke:#000000; stroke-width: 1"/><text name="psyprot" x="299.8" y="96.9" font-size="7" fill="#000000" transform="rotate(10.4 299.8,90.5)">-2.0</text><line name="psyprot" x1="292.5" y1="90.7" x2="297.5" y2="91.5" style="fill:none; stroke:#000000; stroke-width: 1"/><line name="psyprot" x1="292.8" y1="88.8" x2="297.7" y2="89.5" style="fill:none; stroke:#000000; stroke-width: 1"/><line name="psyprot" x1="293.0" y1="87.4" x2="297.9" y2="88.0" style="fill:none; stroke:#000000; stroke-width: 1"/><text name="psyprot" x="300.5" y="90.7" font-size="7" fill="#000000" transform="rotate(7.0 300.5,84.3)">-3.5</text><line name="psyprot" x1="293.1" y1="86.2" x2="298.1" y2="86.7" style="fill:none; stroke:#000000; stroke-width: 1"/><line name="psyprot" x1="293.2" y1="85.2" x2="298.2" y2="85.7" style="fill:none; stroke:#000000; stroke-width: 1"/><line name="psyprot" x1="293.3" y1="84.4" x2="298.3" y2="84.8" style="fill:none; stroke:#000000; stroke-width: 1"/><line name="psyprot" x1="293.4" y1="83.1" x2="298.4" y2="83.5" style="fill:none; stroke:#000000; stroke-width: 1"/><line name="psyprot" x1="293.5" y1="82.1" x2="298.5" y2="82.4" style="fill:none; stroke:#000000; stroke-width: 1"/><text name="psyprot" x="300.9" y="85.0" font-size="7" fill="#000000" transform="rotate(4.0 300.9,78.6)">-7.0</text><line name="psyprot" x1="293.5" y1="81.3" x2="298.5" y2="81.6" style="fill:none; stroke:#000000; stroke-width: 1"/><line name="psyprot" x1="293.6" y1="80.7" x2="298.6" y2="81.0" style="fill:none; stroke:#000000; stroke-width: 1"/><line name="psyprot" x1="293.6" y1="80.2" x2="298.6" y2="80.5" style="fill:none; stroke:#000000; stroke-width: 1"/><line name="psyprot" x1="293.7" y1="78.6" x2="298.7" y2="78.8" style="fill:none; stroke:#000000; stroke-width: 1"/><line name="psyprot" x1="293.7" y1="77.8" x2="298.7" y2="77.9" style="fill:none; stroke:#000000; stroke-width: 1"/><line name="psyprot" x1="282.6" y1="120.9" x2="278.2" y2="118.6" style="fill:none; stroke:#000000; stroke-width: 1"/><text name="psyprot" x="268.8" y="111.5" font-size="7" fill="#000000" transform="rotate(117.2 268.8,111.5)">8</text>
                                    
                                    
                                    
                                    
                                    
                                    
                                    <rect fill-opacity="0" x="0" y="0" width="100%" height="100%"/>
                                    Sorry, your browser does not support inline SVG.
                                </svg>